<svg aria-hidden="true" style="width:0;height:0;position:absolute;overflow:hidden" xmlns="http://www.w3.org/2000/svg"><defs><symbol id="icon-Main-Logo-SUCHEFF-Text-Small" viewBox="0 0 204 32"><path fill="#ff8d40" style="fill:var(--color1,#ff8d40)" d="M178.357 2.659h26.085l-.962 5.286h-11.813l-.951 5.236 11.824.028-.94 5.396h-11.753c-1.847 13.352-2.565 13.622-16.503 13.153l.968-5.423c6.428.783 4.774-3.112 5.999-7.619l-4.658-.055.946-5.368h4.541l1.084-5.319H177.5l.857-5.313zM147.923 2.659h26.085l-.957 5.286h-11.819l-.951 5.236 11.819.028-.94 5.396h-11.746c-1.847 13.352-2.565 13.622-16.504 13.153l.963-5.423c6.427.783 4.78-3.112 6.004-7.619l-4.663-.055.951-5.368h4.541l1.113-5.319h-4.735l.84-5.313zM117.702 2.577h25.947l-.946 5.368H130.89l-.924 5.297h11.724l-.913 5.308h-11.774c-2.571 11.244-.217 7.459 10.333 8.061l-.868 5.175h-14.106c-4.759.022-6.829-1.721-6.21-5.23l1.43-8.005h-4.635l.924-5.308h4.696l.974-5.396-4.73.028.89-5.297zM90.158 0h9.537l-2.382 13.263h7.067l1.903-10.549 9.343.022-5.18 29.021h-9.32l2.265-13.286-6.927.022-1.413 8.166-9.432-.028 1.475-8.138h-2.443l.968-5.368h2.209L90.16-.001zM62.049 7.84c.757-8.441 17.884-4.497 23.448-5.346l-.99 5.423H71.325l-3.339 18.687 12.993.028-.851 5.125c-28.773.651-21.406.458-18.078-23.917zM49.691 2.604h9.459l-4.184 24.028c-.66 3.421-3.337 5.148-8.029 5.181-24.65.866-17.65-1.412-15.09-21.125l-2.354.028.962-5.479h11.724l-3.722 21.346h6.967l4.268-23.978zM4.234 7.917c.657-3.542 3.309-5.313 7.957-5.313h16.454l-.89 5.313H13.699l-.901 5.153c3.055.817 14.095 2.074 13.043 5.429l-1.43 8.105C23.671 34.907 5.526 30.896 0 31.785l.89-5.302h14.133l.963-5.153C12.965 20.536 1.797 19.2 2.782 16l1.452-8.083z"/></symbol><symbol id="icon-Search-Icon-Options" viewBox="0 0 32 32"><path d="M19.742 18.343a6.5 6.5 0 1 0-1.396 1.398h-.001c.03.04.062.078.098.115l3.85 3.85a1 1 0 1 0 1.414-1.414l-3.85-3.85a.993.993 0 0 0-.115-.1v.001zM20 14.499a5.49 5.49 0 0 1-1.611 3.89A5.493 5.493 0 0 1 14.5 20a5.494 5.494 0 0 1-3.889-1.611A5.513 5.513 0 0 1 9 14.499a5.496 5.496 0 0 1 5.5-5.5 5.5 5.5 0 0 1 5.5 5.5z"/></symbol><symbol id="icon-Cart-for-Mobile" viewBox="0 0 32 32"><path fill="#c4c7c7" style="fill:var(--color1,#c4c7c7)" d="M14.845 21.975c0 .269-.08.531-.231.754a1.373 1.373 0 0 1-2.481-.49 1.345 1.345 0 0 1 .078-.785c.104-.248.279-.46.504-.609s.49-.229.761-.229c.363.002.71.145.966.4s.401.599.403.958zm5.751-1.358c-.271 0-.535.08-.761.229a1.349 1.349 0 0 0-.207 2.089 1.377 1.377 0 0 0 2.106-.205c.15-.223.231-.486.231-.754-.002-.36-.147-.704-.403-.958s-.604-.398-.966-.4zm3.375-8.195-1.657 5.731c-.115.396-.357.745-.689.993s-.736.384-1.152.385H13.6a1.927 1.927 0 0 1-1.841-1.378l-1.65-5.717c0-.007-.007-.02-.007-.027l-.609-2.112h-.671c-.218 0-.427-.086-.581-.239a.812.812 0 0 1 .581-1.391h.876c.297.002.586.099.824.276s.412.425.497.708l.493 1.731h11.665a.831.831 0 0 1 .808.666.825.825 0 0 1-.014.373zm-1.883.59H11.984l1.349 4.692a.283.283 0 0 0 .267.197h6.873a.282.282 0 0 0 .267-.197l1.349-4.692z"/></symbol><symbol id="icon-Menu-and-Closed-1" viewBox="0 0 32 32"><path d="M23.461 21.671H8.534c-.141 0-.277-.084-.377-.234s-.156-.353-.156-.566.056-.416.156-.566c.1-.15.236-.234.377-.234h14.927c.141 0 .277.084.377.234s.156.353.156.566-.056.416-.156.566c-.1.15-.236.234-.377.234zM23.461 16.871H8.534c-.141 0-.277-.084-.377-.234s-.156-.353-.156-.566c0-.212.056-.416.156-.566s.236-.234.377-.234h14.927c.141 0 .277.084.377.234s.156.354.156.566c0 .212-.056.416-.156.566s-.236.234-.377.234zM23.461 12.071H8.534c-.141 0-.277-.084-.377-.234s-.156-.354-.156-.566c0-.212.056-.416.156-.566s.236-.234.377-.234h14.927c.141 0 .277.084.377.234s.156.354.156.566c0 .212-.056.416-.156.566s-.236.234-.377.234z"/></symbol><symbol id="icon-Property-124" viewBox="0 0 33 32"><path d="M23.794 21.671H8.867c-.141 0-.277-.084-.377-.234s-.156-.354-.156-.566c0-.212.056-.416.156-.566s.236-.234.377-.234h14.927c.141 0 .277.084.377.234s.156.353.156.566c0 .212-.056.416-.156.566s-.236.234-.377.234zM23.794 16.871H8.867c-.141 0-.277-.084-.377-.234s-.156-.353-.156-.566c0-.212.056-.416.156-.566s.236-.234.377-.234h14.927c.141 0 .277.084.377.234s.156.354.156.566c0 .212-.056.416-.156.566s-.236.234-.377.234zM23.794 12.071H8.867c-.141 0-.277-.084-.377-.234s-.156-.354-.156-.566c0-.212.056-.416.156-.566s.236-.234.377-.234h14.927c.141 0 .277.084.377.234s.156.353.156.566c0 .212-.056.416-.156.566s-.236.234-.377.234z"/></symbol><symbol id="cart-mobile" viewBox="0 0 35 32"><path d="M14.936 29.037c0 .586-.175 1.159-.503 1.646s-.795.867-1.341 1.091-1.146.283-1.726.169c-.579-.114-1.112-.396-1.529-.811s-.702-.942-.818-1.517c-.115-.575-.056-1.17.17-1.712s.609-1.004 1.1-1.33a3.001 3.001 0 0 1 1.66-.499c.791.004 1.549.317 2.108.872s.875 1.306.879 2.091zm12.545-2.963c-.591 0-1.168.174-1.66.499a2.957 2.957 0 0 0-1.27 3.042c.115.575.4 1.103.818 1.517a2.997 2.997 0 0 0 3.255.642 2.992 2.992 0 0 0 1.341-1.091c.328-.487.503-1.06.503-1.646-.004-.785-.32-1.536-.879-2.091s-1.317-.868-2.108-.872zm7.364-17.881L31.23 20.697c-.252.865-.779 1.625-1.504 2.167s-1.606.837-2.514.84H12.217c-.907-.003-1.789-.298-2.514-.84s-1.252-1.303-1.504-2.167L4.6 8.223c0-.015-.015-.044-.015-.059L3.256 3.557H1.792c-.475 0-.931-.187-1.267-.521S0 2.25 0 1.779C0 1.307.189.855.525.522S1.317.001 1.792.001h1.912c.649.005 1.279.216 1.798.603s.899.928 1.084 1.545l1.075 3.778h25.45a1.798 1.798 0 0 1 1.763 1.453c.052.27.042.548-.032.814zm-4.108 1.289H8.692l2.942 10.237a.608.608 0 0 0 .582.43h14.995a.616.616 0 0 0 .582-.43l2.942-10.237z"/></symbol><symbol id="icon-Group-60" viewBox="0 0 32 32"><path d="M30.921 27.342H1.066c-.283 0-.554-.169-.754-.469S0 26.166 0 25.742c0-.424.112-.831.312-1.131s.471-.469.754-.469h29.855c.283 0 .554.169.754.469s.312.707.312 1.131c0 .424-.112.831-.312 1.131s-.471.469-.754.469zM30.921 17.742H1.066c-.283 0-.554-.169-.754-.469S0 16.566 0 16.142c0-.424.112-.831.312-1.131s.471-.469.754-.469h29.855c.283 0 .554.169.754.469s.312.707.312 1.131c0 .424-.112.831-.312 1.131s-.471.469-.754.469zM30.921 8.142H1.066c-.283 0-.554-.169-.754-.469S0 6.966 0 6.542c0-.424.112-.831.312-1.131s.471-.469.754-.469h29.855c.283 0 .554.169.754.469s.312.707.312 1.131-.112.831-.312 1.131c-.2.3-.471.469-.754.469z"/></symbol><symbol id="icon-search-xxx" viewBox="0 0 32 32"><path d="M23.485 20.686A13.003 13.003 0 0 0 21.461 3.13a12.998 12.998 0 0 0-17.657.681 13.004 13.004 0 0 0 7.715 22.107c3.255.373 6.53-.497 9.172-2.435h-.002c.06.08.124.156.196.23l7.7 7.701a2 2 0 0 0 2.83-2.828l-7.7-7.701a1.998 1.998 0 0 0-.23-.2v.002zm.516-7.688a11.017 11.017 0 0 1-3.221 7.779 11.004 11.004 0 0 1-11.987 2.385 10.993 10.993 0 0 1-5.953-5.954 11 11 0 1 1 21.163-4.21z"/></symbol><symbol id="icon-OK" viewBox="0 0 32 32"><path d="M30 16a14.002 14.002 0 0 1-14 14 13.996 13.996 0 0 1-9.899-4.101 13.996 13.996 0 0 1 0-19.798A13.998 13.998 0 0 1 30 16zm-6.948-5.303a1.318 1.318 0 0 0-1.89.039l-6.078 7.744-3.663-3.665a1.312 1.312 0 0 0-1.855 1.855l4.63 4.632a1.307 1.307 0 0 0 1.463.27c.161-.072.306-.175.426-.304l6.986-8.733a1.31 1.31 0 0 0-.018-1.837h-.002z"/></symbol><symbol id="icon-Classic-sushi" viewBox="0 0 32 32"><path fill="#ff8d40" style="fill:var(--color1,#ff8d40)" d="M26.056 3.641C23.361 2.325 19.789 1.6 15.999 1.6c-2.477 0-4.918.317-7.058.918-.624.174-1.237.379-1.836.613-.067.026-.128.064-.179.112s-.091.103-.117.164c-.053.123-.05.26.011.38s.173.215.312.262a.63.63 0 0 0 .43-.01 18.061 18.061 0 0 1 1.72-.574c2.031-.57 4.354-.872 6.717-.872 3.603 0 6.981.681 9.513 1.917 2.426 1.185 3.763 2.727 3.763 4.343s-1.336 3.158-3.763 4.343c-2.532 1.236-5.91 1.917-9.513 1.917s-6.981-.681-9.513-1.917c-2.426-1.185-3.763-2.727-3.763-4.343 0-.927.434-1.824 1.29-2.667a7.902 7.902 0 0 1 1.173-.938c.117-.08.193-.197.213-.326s-.019-.26-.107-.364c-.089-.104-.22-.174-.366-.193s-.295.013-.414.089a8.991 8.991 0 0 0-1.335 1.069c-1.032 1.016-1.578 2.168-1.578 3.33v14.294c0 1.994 1.542 3.845 4.343 5.212 2.696 1.316 6.267 2.041 10.056 2.041s7.361-.725 10.057-2.041c2.801-1.368 4.343-3.219 4.343-5.212V8.853c-.001-1.994-1.543-3.845-4.344-5.212zm3.219 19.506c0 1.615-1.336 3.158-3.763 4.343-2.532 1.236-5.91 1.917-9.513 1.917s-6.981-.681-9.513-1.917c-2.426-1.185-3.763-2.727-3.763-4.343V11.698l.074.086.066.077c.028.032.058.063.088.095l.062.067c.033.035.068.069.102.103l.056.057.116.111.05.048.132.119.042.038c.046.041.094.081.142.121l.04.034c.053.044.108.087.163.131l.027.021.178.135.019.015c.064.047.129.094.195.14l.01.007c.064.045.129.089.195.133l.019.013c.071.047.143.094.217.14l.004.003c.066.042.134.083.202.124l.027.017.22.128.016.009.199.11.045.026.212.112.039.021c.085.044.171.087.259.129 2.696 1.316 6.267 2.041 10.056 2.041s7.361-.725 10.057-2.041l.259-.129.039-.021.212-.112.045-.026a9.352 9.352 0 0 0 .215-.119l.22-.128.027-.017c.068-.041.136-.082.202-.124l.004-.003c.073-.046.146-.093.217-.14l.019-.013c.066-.044.131-.088.195-.133l.01-.007c.066-.046.131-.093.195-.14l.019-.015.178-.135.027-.021c.055-.043.11-.087.163-.131l.04-.034c.048-.04.096-.08.142-.121l.042-.038c.045-.039.089-.079.132-.119l.05-.048.116-.111.056-.057.102-.103.062-.067a7.62 7.62 0 0 1 .088-.095l.066-.077.074-.086v11.449z"/><path fill="#ff8d40" style="fill:var(--color1,#ff8d40)" d="M8.962 12.592c1.889.922 4.388 1.43 7.038 1.43s5.149-.508 7.038-1.43c1.994-.974 3.093-2.301 3.093-3.738s-1.098-2.765-3.093-3.738C21.149 4.193 18.65 3.685 16 3.685s-5.149.508-7.038 1.431c-1.995.974-3.093 2.301-3.093 3.738s1.098 2.764 3.093 3.738zm.544-6.608c1.726-.842 4.032-1.306 6.494-1.306s4.769.464 6.494 1.306c1.62.791 2.512 1.81 2.512 2.869s-.892 2.078-2.512 2.869c-1.726.843-4.032 1.306-6.494 1.306s-4.769-.464-6.494-1.306c-1.62-.791-2.512-1.81-2.512-2.869s.892-2.078 2.512-2.869z"/><path fill="#ff8d40" style="fill:var(--color1,#ff8d40)" d="M16 12.043c3.409 0 6.079-1.401 6.079-3.19s-2.67-3.19-6.079-3.19-6.078 1.401-6.078 3.19 2.67 3.19 6.078 3.19zm0-5.387c2.964 0 4.955 1.136 4.955 2.197S18.964 11.05 16 11.05s-4.954-1.136-4.954-2.197S13.037 6.656 16 6.656z"/><path fill="none" stroke="#ff8d40" style="stroke:var(--color1,#ff8d40)" stroke-width=".8" d="M26.056 3.641C23.361 2.325 19.789 1.6 15.999 1.6c-2.477 0-4.918.317-7.058.918-.624.174-1.237.379-1.836.613-.067.026-.128.064-.179.112s-.091.103-.117.164c-.053.123-.05.26.011.38s.173.215.312.262a.63.63 0 0 0 .43-.01 18.061 18.061 0 0 1 1.72-.574c2.031-.57 4.354-.872 6.717-.872 3.603 0 6.981.681 9.513 1.917 2.426 1.185 3.763 2.727 3.763 4.343s-1.336 3.158-3.763 4.343c-2.532 1.236-5.91 1.917-9.513 1.917s-6.981-.681-9.513-1.917c-2.426-1.185-3.763-2.727-3.763-4.343 0-.927.434-1.824 1.29-2.667a7.902 7.902 0 0 1 1.173-.938c.117-.08.193-.197.213-.326s-.019-.26-.107-.364c-.089-.104-.22-.174-.366-.193s-.295.013-.414.089a8.991 8.991 0 0 0-1.335 1.069c-1.032 1.016-1.578 2.168-1.578 3.33v14.294c0 1.994 1.542 3.845 4.343 5.212 2.696 1.316 6.267 2.041 10.056 2.041s7.361-.725 10.057-2.041c2.801-1.368 4.343-3.219 4.343-5.212V8.853c-.001-1.994-1.543-3.845-4.344-5.212zm3.219 19.506c0 1.615-1.336 3.158-3.763 4.343-2.532 1.236-5.91 1.917-9.513 1.917s-6.981-.681-9.513-1.917c-2.426-1.185-3.763-2.727-3.763-4.343V11.698l.074.086.066.077c.028.032.058.063.088.095l.062.067c.033.035.068.069.102.103l.056.057.116.111.05.048.132.119.042.038c.046.041.094.081.142.121l.04.034c.053.044.108.087.163.131l.027.021.178.135.019.015c.064.047.129.094.195.14l.01.007c.064.045.129.089.195.133l.019.013c.071.047.143.094.217.14l.004.003c.066.042.134.083.202.124l.027.017.22.128.016.009.199.11.045.026.212.112.039.021c.085.044.171.087.259.129 2.696 1.316 6.267 2.041 10.056 2.041s7.361-.725 10.057-2.041l.259-.129.039-.021.212-.112.045-.026a9.352 9.352 0 0 0 .215-.119l.22-.128.027-.017c.068-.041.136-.082.202-.124l.004-.003c.073-.046.146-.093.217-.14l.019-.013c.066-.044.131-.088.195-.133l.01-.007c.066-.046.131-.093.195-.14l.019-.015.178-.135.027-.021c.055-.043.11-.087.163-.131l.04-.034c.048-.04.096-.08.142-.121l.042-.038c.045-.039.089-.079.132-.119l.05-.048.116-.111.056-.057.102-.103.062-.067a7.62 7.62 0 0 1 .088-.095l.066-.077.074-.086v11.449z"/><path fill="none" stroke="#ff8d40" style="stroke:var(--color1,#ff8d40)" stroke-width=".8" d="M8.962 12.592c1.889.922 4.388 1.43 7.038 1.43s5.149-.508 7.038-1.43c1.994-.974 3.093-2.301 3.093-3.738s-1.098-2.765-3.093-3.738C21.149 4.193 18.65 3.685 16 3.685s-5.149.508-7.038 1.431c-1.995.974-3.093 2.301-3.093 3.738s1.098 2.764 3.093 3.738zm.544-6.608c1.726-.842 4.032-1.306 6.494-1.306s4.769.464 6.494 1.306c1.62.791 2.512 1.81 2.512 2.869s-.892 2.078-2.512 2.869c-1.726.843-4.032 1.306-6.494 1.306s-4.769-.464-6.494-1.306c-1.62-.791-2.512-1.81-2.512-2.869s.892-2.078 2.512-2.869z"/><path fill="none" stroke="#ff8d40" style="stroke:var(--color1,#ff8d40)" stroke-width=".8" d="M16 12.043c3.409 0 6.079-1.401 6.079-3.19s-2.67-3.19-6.079-3.19-6.078 1.401-6.078 3.19 2.67 3.19 6.078 3.19zm0-5.387c2.964 0 4.955 1.136 4.955 2.197S18.964 11.05 16 11.05s-4.954-1.136-4.954-2.197S13.037 6.656 16 6.656z"/></symbol><symbol id="icon-Facebook" viewBox="0 0 32 32"><path fill="#1877f2" style="fill:var(--color2,#1877f2)" d="M31.673 16c0 8.656-7.017 15.673-15.673 15.673S.327 24.656.327 16C.327 7.344 7.344.327 16 .327S31.673 7.344 31.673 16z"/><path fill="#fff" style="fill:var(--color3,#fff)" d="m22.101 20.53.695-4.531h-4.347v-2.94c0-1.24.607-2.448 2.554-2.448h1.977V6.754s-1.794-.306-3.509-.306c-3.58 0-5.92 2.17-5.92 6.098v3.453h-3.98v4.531h3.98v10.953a15.818 15.818 0 0 0 4.898 0V20.53h3.652z"/></symbol><symbol id="icon-Instagram" viewBox="0 0 32 32"><path style="fill:var(--color4,#000)" d="M31.673 16c0 8.656-7.017 15.673-15.673 15.673S.327 24.656.327 16C.327 7.344 7.344.327 16 .327S31.673 7.344 31.673 16z"/><path fill="#fff" style="fill:var(--color3,#fff)" d="M16 5.551c-2.838 0-3.194.012-4.308.063-1.112.051-1.872.227-2.536.486-.687.267-1.27.624-1.851 1.205S6.367 8.469 6.1 9.156c-.258.665-.435 1.424-.486 2.536-.051 1.114-.063 1.47-.063 4.308s.012 3.194.063 4.308c.051 1.112.227 1.872.486 2.536.267.687.624 1.27 1.205 1.851s1.164.938 1.851 1.205c.665.258 1.424.435 2.536.486 1.114.051 1.47.063 4.308.063s3.194-.012 4.308-.063c1.112-.051 1.872-.227 2.536-.486.687-.267 1.27-.624 1.851-1.205s.938-1.164 1.205-1.851c.258-.665.435-1.424.486-2.536.051-1.114.063-1.47.063-4.308s-.012-3.194-.063-4.308c-.051-1.112-.227-1.872-.486-2.536-.267-.687-.624-1.27-1.205-1.851s-1.164-.938-1.851-1.205c-.665-.258-1.424-.435-2.536-.486-1.114-.051-1.47-.063-4.308-.063zm0 1.883c2.79 0 3.12.011 4.222.061 1.019.046 1.572.217 1.94.36.488.19.836.416 1.201.782s.592.714.782 1.201c.143.368.313.921.36 1.94.05 1.102.061 1.432.061 4.222s-.011 3.12-.061 4.222c-.046 1.019-.217 1.572-.36 1.94-.19.488-.416.836-.782 1.201s-.714.592-1.201.782c-.368.143-.921.313-1.94.36-1.102.05-1.432.061-4.222.061s-3.121-.011-4.222-.061c-1.019-.046-1.572-.217-1.94-.36-.488-.19-.836-.416-1.201-.782s-.592-.714-.782-1.201c-.143-.368-.313-.921-.36-1.94-.05-1.102-.061-1.432-.061-4.222s.011-3.12.061-4.222c.046-1.019.217-1.572.36-1.94.19-.488.416-.836.782-1.201s.714-.592 1.201-.782c.368-.143.921-.313 1.94-.36 1.102-.05 1.432-.061 4.222-.061z"/><path fill="#fff" style="fill:var(--color3,#fff)" d="M16 19.483a3.482 3.482 0 1 1-.001-6.965A3.482 3.482 0 0 1 16 19.483zm0-8.849a5.366 5.366 0 1 0 0 10.732 5.366 5.366 0 0 0 0-10.732zM22.832 10.422a1.253 1.253 0 1 1-2.507.001 1.253 1.253 0 0 1 2.507-.001z"/></symbol><symbol id="icon-cart-24" viewBox="0 0 32 32"><path d="M14.869 21.853a1.326 1.326 0 0 1-.828 1.229 1.352 1.352 0 0 1-1.462-.288 1.325 1.325 0 0 1 .203-2.047c.221-.146.48-.224.745-.224.355.002.695.142.946.392s.393.586.395.939zm5.633-1.33a1.339 1.339 0 0 0-1.239.821 1.315 1.315 0 0 0-.076.769 1.333 1.333 0 0 0 1.054 1.045 1.352 1.352 0 0 0 1.377-.566c.147-.219.226-.476.226-.739-.002-.352-.144-.69-.395-.939s-.591-.39-.946-.392zm3.306-8.028-1.623 5.614c-.113.388-.35.73-.675.973s-.721.376-1.129.377h-6.733c-.407-.001-.803-.134-1.129-.377s-.562-.585-.675-.973l-1.616-5.601c0-.007-.007-.02-.007-.027l-.597-2.069h-.657c-.213 0-.418-.084-.569-.234a.796.796 0 0 1 0-1.128.812.812 0 0 1 .569-.234h.858a1.365 1.365 0 0 1 1.294.965l.483 1.696h11.427a.823.823 0 0 1 .642.319.797.797 0 0 1 .136.699zm-1.844.578h-9.898l1.321 4.596a.272.272 0 0 0 .262.193h6.733a.273.273 0 0 0 .262-.193l1.321-4.596z"/></symbol><symbol id="icon-cart-36" viewBox="0 0 32 32"><path d="M14.304 25.107a2 2 0 0 1-1.242 1.844 2.027 2.027 0 0 1-2.192-.432 1.98 1.98 0 0 1-.437-2.175c.152-.365.41-.676.741-.896a2.018 2.018 0 0 1 2.538.251c.377.373.59.88.592 1.408zm8.449-1.996c-.398 0-.787.117-1.118.336a1.994 1.994 0 0 0-.855 2.049c.078.387.269.743.551 1.022a2.017 2.017 0 0 0 2.192.432c.368-.151.682-.407.903-.735s.339-.714.339-1.109c-.003-.528-.215-1.034-.592-1.408s-.887-.585-1.42-.587zm4.959-12.043-2.434 8.421c-.17.582-.525 1.095-1.013 1.46s-1.082.564-1.693.566H12.473c-.611-.002-1.205-.201-1.693-.566s-.843-.877-1.013-1.46l-2.424-8.401c0-.01-.01-.03-.01-.04l-.895-3.103h-.986c-.32 0-.627-.126-.854-.351a1.191 1.191 0 0 1 0-1.694c.227-.225.533-.351.854-.351H6.74c.437.003.862.146 1.211.406s.605.625.73 1.041l.724 2.544h17.14a1.224 1.224 0 0 1 .963.478 1.198 1.198 0 0 1 .204 1.049zm-2.766.869H10.099l1.982 6.894a.41.41 0 0 0 .392.29h10.099a.413.413 0 0 0 .392-.29l1.982-6.894z"/></symbol><symbol id="icon-burger-50" viewBox="0 0 32 32"><path d="M23.387 21.615H8.607c-.14 0-.274-.083-.373-.232s-.155-.35-.155-.56c0-.21.056-.412.155-.56s.233-.232.373-.232h14.78c.14 0 .274.083.373.232s.155.35.155.56c0 .21-.056.412-.155.56s-.233.232-.373.232zM23.387 16.862H8.607c-.14 0-.274-.083-.373-.232s-.155-.35-.155-.56c0-.21.056-.412.155-.56s.233-.232.373-.232h14.78c.14 0 .274.083.373.232s.155.35.155.56c0 .21-.056.412-.155.56s-.233.232-.373.232zM23.387 12.11H8.607c-.14 0-.274-.083-.373-.232s-.155-.35-.155-.56c0-.21.056-.412.155-.56s.233-.232.373-.232h14.78c.14 0 .274.083.373.232s.155.35.155.56c0 .21-.056.412-.155.56s-.233.232-.373.232z"/></symbol><symbol id="icon-cart-100" viewBox="0 0 32 32"><path d="M14.857 21.938a1.345 1.345 0 0 1-.836 1.247 1.362 1.362 0 0 1-1.477-.292 1.346 1.346 0 0 1 .205-2.077 1.354 1.354 0 0 1 1.71.17c.254.252.397.595.399.952zm5.693-1.35c-.268 0-.53.079-.753.227a1.343 1.343 0 0 0-.576 1.386 1.356 1.356 0 0 0 1.848.983 1.35 1.35 0 0 0 .836-1.247c-.002-.357-.145-.7-.399-.952s-.598-.395-.957-.397zm3.342-8.144-1.64 5.695c-.114.394-.354.74-.682.987s-.729.381-1.141.383h-6.805a1.909 1.909 0 0 1-1.823-1.37l-1.633-5.681c0-.007-.007-.02-.007-.027l-.603-2.098h-.664a.813.813 0 0 1-.813-.809.81.81 0 0 1 .813-.81h.868a1.37 1.37 0 0 1 1.308.979l.488 1.721h11.549a.824.824 0 0 1 .801.662.816.816 0 0 1-.014.371zm-1.864.587H12.024l1.335 4.662c.017.056.052.106.1.141s.105.054.164.055h6.805c.059 0 .117-.019.164-.055s.083-.085.1-.141l1.335-4.662z"/></symbol><symbol id="icon-Account" viewBox="0 0 32 32"><path d="M15.999 3.451C9.072 3.451 3.45 9.073 3.45 16s5.622 12.549 12.549 12.549S28.548 22.927 28.548 16 22.926 3.451 15.999 3.451zm0 5.02c2.422 0 4.392 1.97 4.392 4.392s-1.97 4.392-4.392 4.392c-2.422 0-4.392-1.97-4.392-4.392s1.97-4.392 4.392-4.392zm0 17.568c-2.547 0-5.559-1.029-7.705-3.614a12.48 12.48 0 0 1 15.41 0c-2.146 2.585-5.158 3.614-7.705 3.614z"/></symbol><symbol id="icon-Attention" viewBox="0 0 32 32"><path d="M17.11 4.119c-.434-.821-1.784-.821-2.219 0L3.597 25.452a1.246 1.246 0 0 0 .033 1.235 1.253 1.253 0 0 0 1.076.607h22.588a1.254 1.254 0 0 0 1.109-1.841L17.11 4.118zm.145 19.41h-2.51v-2.51h2.51v2.51zm-2.509-5.019v-6.274h2.51l.001 6.274h-2.511z"/></symbol><symbol id="icon-creditcard" viewBox="0 0 32 32"><path d="M.941 8.471a3.766 3.766 0 0 1 3.765-3.765h22.588a3.766 3.766 0 0 1 3.765 3.765v9.412H.941V8.471zm21.647 1.882a.94.94 0 0 0-.942.941v1.882a.945.945 0 0 0 .942.941h3.765a.94.94 0 0 0 .942-.941v-1.882a.945.945 0 0 0-.942-.941h-3.765zM.941 21.647v1.882a3.766 3.766 0 0 0 3.765 3.765h22.588a3.766 3.766 0 0 0 3.765-3.765v-1.882H.941z"/></symbol><symbol id="icon-Cheese" viewBox="0 0 32 32"><path fill="#ffede3" style="fill:var(--color5,#ffede3)" d="M.516 16c0-4.81 0-7.215.786-9.112a10.325 10.325 0 0 1 5.587-5.587C8.786.515 11.191.515 16.001.515c4.81 0 7.215 0 9.112.786A10.325 10.325 0 0 1 30.7 6.888c.786 1.897.786 4.302.786 9.112 0 4.81 0 7.215-.786 9.112a10.325 10.325 0 0 1-5.587 5.587c-1.897.786-4.302.786-9.112.786-4.81 0-7.215 0-9.112-.786a10.325 10.325 0 0 1-5.587-5.587C.516 23.215.516 20.81.516 16z"/><path fill="#ffb68a" style="fill:var(--color6,#ffb68a)" d="m12.44 9.154-.006 1.906 3.067-.795-1.684-1.147-1.377.036zm12.306 9.99c0-.653.436-1.188 1.004-1.283v-6.686c-2.294-.552-19.498 4.124-19.498 4.124v2.028a1.934 1.934 0 0 1 0 3.8v4.425l19.498-3.717v-1.406c-.567-.096-1.004-.632-1.004-1.284z"/><path fill="#ffdbc7" style="fill:var(--color7,#ffdbc7)" d="m14.615 6.963-2.204 2.204c.423.099.721.339.721.62 0 .37-.514.669-1.147.669-.272 0-.518-.057-.714-.149l-5.021 5.02c7.551-1.669 12.641-3.031 19.556-4.144-2.788-3.717-9.332-4.221-11.191-4.221z"/><path fill="#ffb68a" style="fill:var(--color6,#ffb68a)" d="M17.147 8.641c0 .37-.514.669-1.147.669s-1.147-.299-1.147-.669c0-.37.514-.669 1.147-.669s1.147.299 1.147.669zm-2.826 3.667c0 .561-.779 1.016-1.741 1.016s-1.741-.455-1.741-1.016c0-.56.779-1.016 1.741-1.016s1.741.455 1.741 1.016zm7.987-1.841c0 .627-.872 1.136-1.948 1.136s-1.947-.509-1.947-1.136.872-1.136 1.947-1.136c1.075 0 1.948.509 1.948 1.136z"/><path fill="#ff8d40" style="fill:var(--color1,#ff8d40)" d="M24.961 14.635c0 .764-.561 1.383-1.255 1.383s-1.255-.619-1.255-1.383.561-1.383 1.255-1.383 1.255.619 1.255 1.383zm-12.76 2.788c0 .72-.529 1.303-1.182 1.303s-1.183-.584-1.183-1.303c0-.72.529-1.303 1.183-1.303s1.182.584 1.182 1.303zm9.838 2.856c-.288.345-.777.413-1.091.15s-.334-.755-.044-1.101c.29-.347.778-.414 1.091-.152s.334.755.044 1.102zm-5.553-4.231c-.388.465-1.046.556-1.469.202-.422-.353-.449-1.017-.06-1.481.39-.467 1.047-.557 1.469-.204s.45 1.017.06 1.483zm.5 5.744c-.688.92-1.923 1.159-2.757.535s-.954-1.876-.265-2.796c.688-.92 1.923-1.16 2.757-.536s.954 1.876.265 2.797z"/></symbol><symbol id="icon-Delivery" viewBox="0 0 32 32"><path fill="#eff1f1" style="fill:var(--color8,#eff1f1)" d="M.516 16c0-4.81 0-7.215.786-9.112a10.325 10.325 0 0 1 5.587-5.587C8.786.515 11.191.515 16.001.515c4.81 0 7.215 0 9.112.786A10.325 10.325 0 0 1 30.7 6.888c.786 1.897.786 4.302.786 9.112 0 4.81 0 7.215-.786 9.112a10.325 10.325 0 0 1-5.587 5.587c-1.897.786-4.302.786-9.112.786-4.81 0-7.215 0-9.112-.786a10.325 10.325 0 0 1-5.587-5.587C.516 23.215.516 20.81.516 16z"/><path fill="#ff8d40" style="fill:var(--color1,#ff8d40)" d="M23.903 8.669h-8.509c-1.206 0-2.184 1.264-2.184 2.823v2.679l-.515.151-.378 2.673.261 2.698 2.693-.016c.042.004.08.016.122.016h8.509c1.207 0 2.184-1.263 2.184-2.822v-5.379c.001-1.559-.977-2.823-2.184-2.823z"/><path fill="#ffb68a" style="fill:var(--color6,#ffb68a)" d="M23.903 8.675h-8.509c-1.206 0-2.184 1.264-2.184 2.823v2.679l-.515.151-.378 2.673.181 1.878.197-1.386.515-.151v-2.679c0-1.559.977-2.822 2.184-2.822h8.509c1.207 0 2.184 1.264 2.184 2.822v-3.165c0-1.559-.977-2.822-2.184-2.822z"/><path fill="#e0e3e3" style="fill:var(--color9,#e0e3e3)" d="M12.053 11.842H10.32c-1.448.094-4.327.758-4.272 4.539v1.392c0 1.191.518 2.155 1.156 2.155h4.848c.638 0 1.157-.965 1.157-2.155v-3.775c0-1.19-.518-2.156-1.157-2.156z"/><path fill="#e0e3e3" style="fill:var(--color9,#e0e3e3)" d="M12.516 10.512h-1.039c-.866.05-2.59.394-2.557 2.358v.722c0 .619.311 1.12.692 1.12h2.903c.382 0 .692-.501.692-1.12v-1.959c.001-.619-.31-1.12-.692-1.12z"/><path fill="#a9acac" style="fill:var(--color10,#a9acac)" d="M9.843 12.893h-.869c-.726.054-2.169.434-2.141 2.597v.796c0 .682.259 1.234.579 1.234h2.431c.32 0 .581-.553.581-1.234v-2.16c0-.681-.26-1.233-.581-1.233z"/><path fill="#444748" style="fill:var(--color11,#444748)" d="M8.594 15.598c-.042-.912.02-1.849.289-2.708-.73.058-2.155.446-2.128 2.597v.796c0 .682.26 1.234.58 1.234h1.58c-.186-.577-.288-1.215-.32-1.918z"/><path fill="#fff" style="fill:var(--color3,#fff)" d="M12.545 20.497a2.235 2.235 0 0 1-3.819 1.581 2.244 2.244 0 0 1-.656-1.581 2.24 2.24 0 0 1 2.237-2.238 2.25 2.25 0 0 1 1.583.655 2.25 2.25 0 0 1 .656 1.582z"/><path fill="#444748" style="fill:var(--color11,#444748)" d="M12.149 20.497a1.845 1.845 0 0 1-1.841 1.84 1.843 1.843 0 0 1-1.84-1.84 1.842 1.842 0 0 1 3.682 0z"/><path fill="#a9acac" style="fill:var(--color10,#a9acac)" d="M11.5 20.471a1.195 1.195 0 0 1-2.387 0 1.193 1.193 0 0 1 2.386 0z"/><path fill="#fff" style="fill:var(--color3,#fff)" d="M21.754 20.786a1.952 1.952 0 0 1-1.949 1.949 1.948 1.948 0 1 1 .747-3.749 1.941 1.941 0 0 1 1.202 1.8z"/><path fill="#444748" style="fill:var(--color11,#444748)" d="M21.409 20.786a1.605 1.605 0 0 1-1.602 1.602 1.605 1.605 0 0 1-1.602-1.602 1.614 1.614 0 0 1 .468-1.133 1.593 1.593 0 0 1 1.132-.469 1.61 1.61 0 0 1 1.133.468 1.605 1.605 0 0 1 .47 1.133z"/><path fill="#a9acac" style="fill:var(--color10,#a9acac)" d="M20.845 20.765a1.046 1.046 0 0 1-.304.735 1.048 1.048 0 0 1-.735.304 1.041 1.041 0 0 1-.959-.641 1.044 1.044 0 0 1 .225-1.131 1.037 1.037 0 0 1 1.598.157c.114.17.175.371.175.577z"/><path fill="#fff" style="fill:var(--color3,#fff)" d="M25.738 20.765a1.942 1.942 0 0 1-1.203 1.797 1.941 1.941 0 0 1-2.121-.423 1.939 1.939 0 0 1-.569-1.377 1.947 1.947 0 1 1 3.893.003z"/><path fill="#444748" style="fill:var(--color11,#444748)" d="M25.393 20.765a1.599 1.599 0 0 1-2.736 1.133 1.599 1.599 0 0 1 0-2.266 1.603 1.603 0 0 1 2.736 1.133z"/><path fill="#a9acac" style="fill:var(--color10,#a9acac)" d="M24.829 20.743a1.048 1.048 0 0 1-.298.746 1.045 1.045 0 0 1-.741.311 1.028 1.028 0 0 1-.741-.311 1.029 1.029 0 0 1-.298-.746 1.038 1.038 0 0 1 2.078 0z"/><path fill="#eff1f1" style="fill:var(--color8,#eff1f1)" d="M6.752 18.668c0 .543-.219.983-.491.983s-.491-.44-.491-.983v-.022c0-.542.22-.981.491-.981s.491.439.491.981v.022z"/><path fill="#dd3730" style="fill:var(--color12,#dd3730)" d="M26.229 17.531c0 .543-.219.982-.491.982s-.491-.439-.491-.982v-.021c0-.543.22-.982.491-.982.272 0 .491.439.491.982v.021z"/></symbol><symbol id="icon-Fish" viewBox="0 0 32 32"><path fill="#fbfdfd" style="fill:var(--color13,#fbfdfd)" d="M.516 16c0-4.81 0-7.215.786-9.112a10.325 10.325 0 0 1 5.587-5.587C8.786.515 11.191.515 16.001.515c4.81 0 7.215 0 9.112.786A10.325 10.325 0 0 1 30.7 6.888c.786 1.897.786 4.302.786 9.112 0 4.81 0 7.215-.786 9.112a10.325 10.325 0 0 1-5.587 5.587c-1.897.786-4.302.786-9.112.786-4.81 0-7.215 0-9.112-.786a10.325 10.325 0 0 1-5.587-5.587C.516 23.215.516 20.81.516 16z"/><path fill="#2d3132" style="fill:var(--color14,#2d3132)" d="M22.606 17.286c3.932-.113 3.993 5.77 3.317 5.58-2.111-.595-4.034-5.559-3.317-5.58zm-7.396-2.274c-3.606-5.181 1.93-7.508 2.349-6.539 1.314 3.034-1.692 7.484-2.349 6.539z"/><path fill="#2d3132" style="fill:var(--color14,#2d3132)" d="M22.607 17.282c3.932.115 3.993-5.768 3.317-5.578-2.111.594-4.034 5.558-3.317 5.578z"/><path fill="#444748" style="fill:var(--color11,#444748)" d="M13.285 22.871c-2.801 0-5.068-2.616-5.068-5.848s2.268-5.848 5.068-5.848c2.796 0 9.697 2.617 9.697 5.848s-6.902 5.848-9.697 5.848z"/><path fill="#747778" style="fill:var(--color15,#747778)" d="M9.261 20.571c.926 1.396 2.38 2.299 4.023 2.299 2.761 0 9.52-2.551 9.69-5.727-3.928 2.981-8.861 4.39-13.713 3.429z"/><path fill="#a9acac" style="fill:var(--color10,#a9acac)" d="M12.421 22.871c1.945 0 3.521-2.616 3.521-5.848s-1.575-5.848-3.521-5.848c-1.945 0-6.739 2.617-6.739 5.848s4.795 5.848 6.739 5.848z"/><path fill="#fff" style="fill:var(--color3,#fff)" d="M15.599 15.496c0 1.774-.958 3.209-2.142 3.209s-2.143-1.436-2.143-3.209c0-1.773.96-3.208 2.143-3.208s2.142 1.435 2.142 3.208z"/><path fill="#2d3132" style="fill:var(--color14,#2d3132)" d="M14.844 15.496c0 .929-.621 1.682-1.387 1.682s-1.387-.753-1.387-1.682c0-.928.621-1.681 1.387-1.681s1.387.753 1.387 1.681z"/><path fill="#fff" style="fill:var(--color3,#fff)" d="M10.024 14.994c0 1.496-.809 2.707-1.808 2.707s-1.807-1.211-1.807-2.707c0-1.495.809-2.706 1.807-2.706s1.808 1.211 1.808 2.706z"/><path fill="#2d3132" style="fill:var(--color14,#2d3132)" d="M9.386 14.994c0 .783-.524 1.418-1.169 1.418s-1.169-.636-1.169-1.418c0-.784.524-1.418 1.169-1.418s1.169.634 1.169 1.418zm4.427 5.759a9.883 9.883 0 0 0-1.93-.171c-.676 0-1.346.048-1.974.098-.219.018-.531.179-.524.392.003.057.015.254.409.22.628-.049 1.275-.101 1.908-.101.596 0 1.121.047 1.606.141l.07.006c.065 0 .641-.075.668-.345.004-.046 0-.195-.233-.24z"/></symbol><symbol id="icon-Green-Heart" viewBox="0 0 32 32"><path fill="#f6ffea" style="fill:var(--color16,#f6ffea)" d="M.516 16c0-4.81 0-7.215.786-9.112a10.325 10.325 0 0 1 5.587-5.587C8.786.515 11.191.515 16.001.515c4.81 0 7.215 0 9.112.786A10.325 10.325 0 0 1 30.7 6.888c.786 1.897.786 4.302.786 9.112 0 4.81 0 7.215-.786 9.112a10.325 10.325 0 0 1-5.587 5.587c-1.897.786-4.302.786-9.112.786-4.81 0-7.215 0-9.112-.786a10.325 10.325 0 0 1-5.587-5.587C.516 23.215.516 20.81.516 16z"/><path fill="#94d77e" style="fill:var(--color17,#94d77e)" d="M25.244 12.123c-.071-1.118-.311-2.026-1.089-2.961-1.558-1.869-5.142-2.181-6.744-.381-.28.265-.543.584-.809.964l-.6.862-.6-.862c-.266-.381-.53-.7-.81-.964-1.604-1.8-5.187-1.489-6.744.381-.779.935-1.019 1.843-1.09 2.961-.102 3.323 2.31 5.984 2.607 6.374 1.637 1.92 3.422 3.735 5.235 5.408.328.287.611.526.895.763l.508.418c.169-.138.337-.279.506-.418.284-.237.568-.476.895-.763 1.814-1.673 3.599-3.487 5.234-5.408.298-.39 2.709-3.051 2.607-6.374z"/><path fill="#7abb66" style="fill:var(--color18,#7abb66)" d="M24.245 11.53a2.959 2.959 0 0 0-.133-.845 2.627 2.627 0 0 0-.34-.703c-.863-1.268-2.744-1.725-4.315-1.404-.613.147-1.227.378-1.508.963-.096.251.106.372.418.357 1.131-.126 2.381-.012 3.381.473.249.122.482.267.695.436.717.555 1.027 1.419 1.167 2.275.349-.07.538-.489.584-.861.041-.23.063-.464.051-.692z"/></symbol><symbol id="icon-search-Induced-State" viewBox="0 0 33 32"><path fill="#ff8d40" style="fill:var(--color1,#ff8d40)" d="M23.884 20.688a13 13 0 1 0-2.794 2.796h-.002c.06.08.124.156.196.23l7.7 7.7a2 2 0 0 0 2.83-2.828l-7.7-7.7a2.086 2.086 0 0 0-.23-.2v.002zM24.4 13a11.017 11.017 0 0 1-3.221 7.779A11.017 11.017 0 0 1 9.19 23.163 10.996 10.996 0 0 1 2.399 13a11 11 0 0 1 22 0z"/></symbol><symbol id="icon-Location" viewBox="0 0 32 32"><path d="M16 31.059s11.294-10.703 11.294-18.824a11.295 11.295 0 0 0-22.588 0C4.706 20.355 16 31.059 16 31.059zm0-13.177a5.646 5.646 0 1 1 0-11.293 5.646 5.646 0 0 1 0 11.293z"/></symbol><symbol id="icon-Mail" viewBox="0 0 32 32"><path d="M28.132 5.841a1.677 1.677 0 0 0-.347 0H4.081a1.667 1.667 0 0 0-.449.068l12.233 12.182 12.267-12.25z"/><path d="M29.384 7.018 17.058 19.293a1.693 1.693 0 0 1-2.388 0L2.454 7.111a1.68 1.68 0 0 0-.059.423v16.931a1.69 1.69 0 0 0 1.693 1.693h23.704a1.69 1.69 0 0 0 1.693-1.693V7.534a1.684 1.684 0 0 0-.102-.516zM5.249 24.466H4.072v-1.211l6.154-6.104 1.194 1.194-6.171 6.121zm22.527 0h-1.185l-6.171-6.121 1.194-1.194 6.154 6.104.008 1.211z"/></symbol><symbol id="icon-Meat" viewBox="0 0 32 32"><path fill="#ffb4a9" style="fill:var(--color19,#ffb4a9)" d="M.516 16c0-4.81 0-7.215.786-9.112a10.325 10.325 0 0 1 5.587-5.587C8.786.515 11.191.515 16.001.515c4.81 0 7.215 0 9.112.786A10.325 10.325 0 0 1 30.7 6.888c.786 1.897.786 4.302.786 9.112 0 4.81 0 7.215-.786 9.112a10.325 10.325 0 0 1-5.587 5.587c-1.897.786-4.302.786-9.112.786-4.81 0-7.215 0-9.112-.786a10.325 10.325 0 0 1-5.587-5.587C.516 23.215.516 20.81.516 16z"/><path fill="#ff897a" style="fill:var(--color20,#ff897a)" d="m25.198 9.185-18.8 6.644s-.069 1.489.092 2.724.389 1.9.389 1.9.618 2.816 4.213 4.213c3.595 1.397 7.274-.189 8.381-.802 1.329-.735 3.064-2.432 3.752-3.279s2.019-2.764 2.179-4.002c.16-1.237.327-3.192.321-4.429-.011-1.832-.526-2.969-.526-2.969z"/><path fill="#ffdbc7" style="fill:var(--color7,#ffdbc7)" d="M16.015 10.471c-1.076.252-4.511.64-5.336.869s-1.96.674-2.314.955c-.581.46-1.976 2.8-1.968 3.534.013 1.276.487 2.852.9 3.232.3.277 2.627 3.635 5.787 3.658s10.121-4.74 10.418-5.152c.298-.413 1.331-2.387 1.618-3.634.253-1.102.574-3.469.031-4.906-.418-1.106-1.405-2.127-2.077-2.261-1.331-.263-2.089-.005-2.295.065s-.56 2.216-1.442 2.542c-1.305.481-3.321 1.098-3.321 1.098z"/><path fill="#dd3730" style="fill:var(--color12,#dd3730)" d="M20.063 9.323c.939-.555 1.037-2.576 1.037-2.576s-.719.047-1.521.697c-.802.65-1.727 1.81-2.184 2.142s-1.381.885-1.381.885 2.602-.295 4.048-1.148zm1.092 2.362c.495 1.523 2.294 2.003 2.805 1.866.511-.139.829-1.258.787-2.889s-.871-2.544-1.645-2.487c-.663.047-1.59.695-1.935 1.685a2.882 2.882 0 0 0-.011 1.824zm-3.028-.372c.215.214-.373.844-.042 1.824.332.981.884 1.258.843 1.548s-2.335 3.192-3.952 3.8c-1.616.608-6.102.405-6.924-1.879-.623-1.727.692-3.218 1.037-3.497.524-.424 1.044-.748 1.839-.898.303-.056 2.571-.4 3.911-.539 1.339-.139 3.039-.608 3.287-.36z"/><path fill="#ff5449" style="fill:var(--color21,#ff5449)" d="M14.313 12.487c.113.524-1.424 1.037-2.611 1.906-.879.644-1.548 1.824-2.308 1.355s.311-2.284.719-2.598c.482-.373 4.076-1.243 4.2-.663zm4.184-3.135c.116.258.968-.373 1.382-.719.335-.279.742-.532.526-.871-.248-.387-.69-.055-1.119.4-.281.298-.915.915-.789 1.19z"/><path fill="#dd3730" style="fill:var(--color12,#dd3730)" d="M12.144 20.143c.642.203.418 2.453.898 2.432.556-.023.15-1.91.661-2.364.511-.456 1.155-.382 2.081-.839s1.944-1.315 2.661-2.158c.719-.844 1.521-1.797 1.894-2.087s2.323-.871 2.998-.4c.677.469.429 2.46.429 2.46s-1.319 2.364-3.973 3.934c-2.653 1.569-4.163 2.192-7.392 1.823s-5.166-3.947-5.166-3.947 1.245.531 2.653.761c1.408.231 1.616.184 2.255.386z"/><path fill="#fff" style="fill:var(--color3,#fff)" d="M19.803 10.431c-.797.484-1.506 1.387-1.145 2.598s2.235 1.947 3.469.766c1.094-1.045.835-2.264.334-2.856-.498-.59-1.619-1.139-2.658-.508z"/><path fill="#ffb4a9" style="fill:var(--color19,#ffb4a9)" d="M21.474 10.973c-.845-.429-1.711.061-1.981.611-.268.55-.234 1.323.405 1.781.684.492 1.734.245 2.1-.508s.147-1.544-.524-1.884z"/></symbol><symbol id="icon-search-Normal-State-Mobile-Large" viewBox="0 0 32 32"><path d="M21.717 19.638a9.655 9.655 0 1 0-2.076 2.077h-.002c.045.059.092.116.146.171l5.718 5.718a1.487 1.487 0 0 0 2.1.001 1.483 1.483 0 0 0 0-2.101l-5.718-5.718a1.521 1.521 0 0 0-.171-.149v.002zm.383-5.709a8.158 8.158 0 0 1-2.393 5.776 8.164 8.164 0 0 1-8.902 1.771 8.175 8.175 0 0 1-5.043-7.547A8.17 8.17 0 0 1 13.93 5.76a8.17 8.17 0 0 1 8.168 8.169z"/></symbol><symbol id="icon-search-Normal-State-Mobile-Small" viewBox="0 0 32 32"><path d="M19.666 18.295a6.37 6.37 0 0 0-9.64-8.266 6.371 6.371 0 0 0-.327 8.65 6.367 6.367 0 0 0 8.598.985h-.001c.029.039.061.076.096.113l3.771 3.772a.98.98 0 1 0 1.386-1.386l-3.771-3.772a1.059 1.059 0 0 0-.113-.098v.001zm.253-3.766a5.384 5.384 0 0 1-3.326 4.978 5.384 5.384 0 0 1-5.872-1.168 5.39 5.39 0 0 1 0-7.62 5.39 5.39 0 0 1 9.198 3.81z"/></symbol><symbol id="icon-search-Normal-ondition" viewBox="0 0 33 32"><path d="M23.884 20.688a13 13 0 1 0-2.794 2.796h-.002c.06.08.124.156.196.23l7.7 7.7a2 2 0 0 0 2.83-2.828l-7.7-7.7a2.086 2.086 0 0 0-.23-.2v.002zM24.4 13a11.017 11.017 0 0 1-3.221 7.779A11.017 11.017 0 0 1 9.19 23.163 10.996 10.996 0 0 1 2.399 13a11 11 0 0 1 22 0z"/></symbol><symbol id="icon-Pepper" viewBox="0 0 32 32"><path fill="#ffede9" style="fill:var(--color22,#ffede9)" d="M.516 16c0-4.81 0-7.215.786-9.112a10.325 10.325 0 0 1 5.587-5.587C8.786.515 11.191.515 16.001.515c4.81 0 7.215 0 9.112.786A10.325 10.325 0 0 1 30.7 6.888c.786 1.897.786 4.302.786 9.112 0 4.81 0 7.215-.786 9.112a10.325 10.325 0 0 1-5.587 5.587c-1.897.786-4.302.786-9.112.786-4.81 0-7.215 0-9.112-.786a10.325 10.325 0 0 1-5.587-5.587C.516 23.215.516 20.81.516 16z"/><path fill="#ff5449" style="fill:var(--color21,#ff5449)" d="M7.806 6.484c-1.161 1.065-.258 3.484-.258 3.484-1.323 1.516-.903 4.129-.903 4.129l1.581-4.29c-.194-2.323.677-3 .677-3 .161-.355-.677-.71-1.097-.323z"/><path fill="#7abb66" style="fill:var(--color18,#7abb66)" d="M8.129 6.742c-.968.871-.065 3.161-.065 3.161-1.323 1.516-.871 2.903-.903 3.742l6.419-3.806c-.71-1.871-4.677-.871-4.677-.871-.806-1.387 0-2.161 0-2.161s-.258.097-.774-.065z"/><path fill="#dd3730" style="fill:var(--color12,#dd3730)" d="M19.516 21.161c-3.129-3-3.484-5.419-3.484-8.129 0-2.129-1.29-3.645-2.677-3.903-.71-.129-2.903-.226-2.161.419.71.645-2.613.129-2.613 1.516 0 1-.839-.194-1.839 2.29-1 2.581-.032 4.355 1.419 5.968 2.839 3.097 9.484 8.742 16.355 5.194 3.548-1.774-1.968-.452-5-3.355z"/></symbol><symbol id="icon-Pleased" viewBox="0 0 32 32"><path fill="#ff8d40" style="fill:var(--color1,#ff8d40)" d="M.516 16c0-4.81 0-7.215.786-9.112a10.325 10.325 0 0 1 5.587-5.587C8.786.515 11.191.515 16.001.515c4.81 0 7.215 0 9.112.786A10.325 10.325 0 0 1 30.7 6.888c.786 1.897.786 4.302.786 9.112 0 4.81 0 7.215-.786 9.112a10.325 10.325 0 0 1-5.587 5.587c-1.897.786-4.302.786-9.112.786-4.81 0-7.215 0-9.112-.786a10.325 10.325 0 0 1-5.587-5.587C.516 23.215.516 20.81.516 16z"/><path fill="#fcfcfc" style="fill:var(--color23,#fcfcfc)" d="M16 25.677c5.345 0 9.677-4.333 9.677-9.677S21.344 6.323 16 6.323c-5.345 0-9.677 4.333-9.677 9.677s4.333 9.677 9.677 9.677z"/><path fill="#765847" style="fill:var(--color24,#765847)" d="M11.806 12.387c0-.774 1.71-.419 2.258.129.323-.548.161-1.032.161-1.032s-.484-.355-1.226-.484v-.71c-.581-.194-1.226 0-1.226 0v.677s-1.161.226-1.161 1.419c0 1.581 2.387 1.258 2.387 2.258 0 .742-1.613.419-2.387-.161-.258.581 0 1.097 0 1.097a4.44 4.44 0 0 0 1.161.323v.645s.645.194 1.226 0v-.677s1.355-.065 1.355-1.226c.032-1.516-2.548-1.387-2.548-2.258zm7.097 0c0-.774 1.71-.419 2.258.129.323-.548.161-1.032.161-1.032s-.484-.355-1.226-.484v-.71c-.581-.194-1.226 0-1.226 0v.677s-1.161.226-1.161 1.419c0 1.581 2.387 1.258 2.387 2.258 0 .742-1.613.419-2.387-.161-.258.581 0 1.097 0 1.097a4.44 4.44 0 0 0 1.161.323v.645s.645.194 1.226 0v-.677s1.355-.065 1.355-1.226c.032-1.516-2.548-1.387-2.548-2.258zm2.226 5.549H10.871c-.226 0-.355.161-.355.323 0 2.355 1.935 4.839 5.484 4.839s5.484-2.484 5.484-4.839c0-.161-.129-.323-.355-.323z"/><path fill="#aff497" style="fill:var(--color25,#aff497)" d="M18.968 19.871h-5.935c-.226 0-.258.097-.258.258v1.29c0 2.839 1.452 4.258 3.226 4.258s3.226-1.419 3.226-4.258v-1.29c0-.161-.032-.258-.258-.258z"/><path fill="#60a04d" style="fill:var(--color26,#60a04d)" d="M15.581 21.645c0-.516 1.064-.258 1.419.097.226-.355.097-.677.097-.677s-.323-.226-.774-.323v-.484c-.355-.129-.774 0-.774 0v.452s-.742.129-.742.935c0 1.032 1.516.806 1.516 1.484 0 .484-1 .29-1.516-.097-.161.387 0 .71 0 .71.355.161.742.226.742.226v.419s.387.129.774 0v-.452s.839-.065.839-.806c.065-1-1.581-.903-1.581-1.484z"/><path fill="#60a04d" style="fill:var(--color26,#60a04d)" d="M18.452 19.871V21c0 2.677-.968 3.871-2.452 3.871S13.548 23.71 13.548 21v-1.129h-.258V21c0 2.871 1.064 4.161 2.71 4.161s2.71-1.29 2.71-4.161v-1.129h-.258z"/></symbol><symbol id="icon-search-Pressed-State-Mobile-Large" viewBox="0 0 32 32"><path fill="#ff8d40" style="fill:var(--color1,#ff8d40)" d="M21.717 19.638a9.655 9.655 0 1 0-2.076 2.077h-.002c.045.059.092.116.146.171l5.718 5.718a1.487 1.487 0 0 0 2.1.001 1.483 1.483 0 0 0 0-2.101l-5.718-5.718a1.521 1.521 0 0 0-.171-.149v.002zm.383-5.709a8.158 8.158 0 0 1-2.393 5.776 8.164 8.164 0 0 1-8.902 1.771 8.175 8.175 0 0 1-5.043-7.547A8.17 8.17 0 0 1 13.93 5.76a8.17 8.17 0 0 1 8.168 8.169z"/></symbol><symbol id="icon-search-Pressed-State-Mobile-Small" viewBox="0 0 32 32"><path fill="#ff8d40" style="fill:var(--color1,#ff8d40)" d="M19.666 18.295a6.37 6.37 0 0 0-9.64-8.266 6.371 6.371 0 0 0-.327 8.65 6.367 6.367 0 0 0 8.598.985h-.001c.029.039.061.076.096.113l3.771 3.772a.98.98 0 1 0 1.386-1.386l-3.771-3.772a1.059 1.059 0 0 0-.113-.098v.001zm.253-3.766a5.384 5.384 0 0 1-3.326 4.978 5.384 5.384 0 0 1-5.872-1.168 5.39 5.39 0 0 1 0-7.62 5.39 5.39 0 0 1 9.198 3.81z"/></symbol><symbol id="icon-search-Pressed-State" viewBox="0 0 33 32"><path fill="#e76e0e" style="fill:var(--color27,#e76e0e)" d="M23.884 20.688a13 13 0 1 0-2.794 2.796h-.002c.06.08.124.156.196.23l7.7 7.7a2 2 0 0 0 2.83-2.828l-7.7-7.7a2.086 2.086 0 0 0-.23-.2v.002zM24.4 13a11.017 11.017 0 0 1-3.221 7.779A11.017 11.017 0 0 1 9.19 23.163 10.996 10.996 0 0 1 2.399 13a11 11 0 0 1 22 0z"/></symbol><symbol id="icon-Purse" viewBox="0 0 32 32"><path d="M28.498 12.654h-1.623V8.471a.837.837 0 0 0-.837-.837H5.96a.837.837 0 1 1 0-1.674h19.744a.837.837 0 1 0 0-1.674H5.96a2.463 2.463 0 0 0-2.509 2.41v17.569a3.454 3.454 0 0 0 3.472 3.447h19.116a.837.837 0 0 0 .837-.837v-4.183h1.623a.785.785 0 0 0 .582-.2.788.788 0 0 0 .254-.561v-8.366a.902.902 0 0 0-.837-.912zm-.786 8.365h-7.178a3.235 3.235 0 0 1-3.121-3.347 3.242 3.242 0 0 1 3.121-3.347h7.178v6.693z"/><path d="M21.053 18.861a1.255 1.255 0 1 0 0-2.51 1.255 1.255 0 0 0 0 2.51z"/></symbol><symbol id="icon-Show-tongue" viewBox="0 0 32 32"><path fill="#a9acac" style="fill:var(--color10,#a9acac)" d="M.516 16c0-4.81 0-7.215.786-9.112a10.325 10.325 0 0 1 5.587-5.587C8.786.515 11.191.515 16.001.515c4.81 0 7.215 0 9.112.786A10.325 10.325 0 0 1 30.7 6.888c.786 1.897.786 4.302.786 9.112 0 4.81 0 7.215-.786 9.112a10.325 10.325 0 0 1-5.587 5.587c-1.897.786-4.302.786-9.112.786-4.81 0-7.215 0-9.112-.786a10.325 10.325 0 0 1-5.587-5.587C.516 23.215.516 20.81.516 16z"/><path fill="#ffdbc7" style="fill:var(--color7,#ffdbc7)" d="M25.677 16c0 5.355-4.323 9.677-9.677 9.677S6.323 21.354 6.323 16c0-5.355 4.323-9.677 9.677-9.677s9.677 4.323 9.677 9.677z"/><path fill="#ff897a" style="fill:var(--color20,#ff897a)" d="M19.225 21.129c-1.613-1.613-.903-.903.806-2.613s1-2.452 2.613-.806c1.613 1.613 1.677 3.194.71 4.161-.935.936-2.516.871-4.129-.742z"/><path fill="#ff5449" style="fill:var(--color21,#ff5449)" d="m20.387 18.161 2.194 2.903-2.871-2.193.677-.71z"/><path fill="#765847" style="fill:var(--color24,#765847)" d="M14.871 13.71c-.613-1.645-1.516-2.484-2.419-2.484s-1.806.839-2.419 2.484c-.065.161.258.452.419.29.581-.613 1.29-.871 2-.871s1.419.258 2 .871c.194.161.484-.129.419-.29zm7.065 0c-.613-1.645-1.516-2.484-2.419-2.484s-1.806.839-2.419 2.484c-.065.161.258.452.419.29.581-.613 1.29-.871 2-.871s1.419.258 2 .871c.161.161.484-.129.419-.29zm-.742 2.613c-1.387 1.968-3.065 2.452-5.194 2.452s-3.806-.484-5.194-2.452c-.194-.258-.71-.097-.581.29.742 2.581 3.226 4.097 5.806 4.097s5.064-1.516 5.806-4.097c.065-.387-.452-.548-.645-.29z"/></symbol><symbol id="icon-Telephone" viewBox="0 0 32 32"><path d="M4.49 1.903A3.275 3.275 0 0 1 7.015.949c.465.029.918.156 1.329.374s.772.52 1.058.887l3.379 4.341c.619.796.838 1.833.593 2.812l-1.03 4.122a1.266 1.266 0 0 0 .335 1.21l4.625 4.625a1.27 1.27 0 0 0 1.212.335l4.121-1.03a3.295 3.295 0 0 1 2.812.593l4.341 3.377a3.284 3.284 0 0 1 .307 4.915l-1.946 1.946c-1.393 1.393-3.475 2.005-5.416 1.321a35.074 35.074 0 0 1-13.195-8.32A35.086 35.086 0 0 1 1.22 9.264c-.681-1.939-.07-4.023 1.323-5.416l1.946-1.946z"/></symbol><symbol id="icon-Vegans" viewBox="0 0 32 32"><path fill="#f6ffea" style="fill:var(--color16,#f6ffea)" d="M.516 16c0-4.81 0-7.215.786-9.112a10.325 10.325 0 0 1 5.587-5.587C8.786.515 11.191.515 16.001.515c4.81 0 7.215 0 9.112.786A10.325 10.325 0 0 1 30.7 6.888c.786 1.897.786 4.302.786 9.112 0 4.81 0 7.215-.786 9.112a10.325 10.325 0 0 1-5.587 5.587c-1.897.786-4.302.786-9.112.786-4.81 0-7.215 0-9.112-.786a10.325 10.325 0 0 1-5.587-5.587C.516 23.215.516 20.81.516 16z"/><path fill="#7abb66" style="fill:var(--color18,#7abb66)" d="M10.667 18.379c0-.152-.05-2.327-.253-3.111s-.582-1.139-.684-2.277.56-2.094.861-2.45c.556-.656 1.364-.964 1.364-.964s-.189-1.156.708-1.695c1.013-.608 1.773.377 1.924.453s3.239-1.618 3.239-1.618.556-.421 1.645-.405c1.503.021 2.121.934 2.403 1.265.431.506.794 1.731.769 2.465s-.198 1.082-.114 1.256c.084.174.544.089.956.584.379.455.887 1.176.913 2.516.024 1.298-1.245 3.014-1.548 3.292-.303.279-.66.561-.913.942-.253.379-.569 1.144-1.226 1.65-.658.506-1.668.703-2.326.779s-1.323-.055-1.781.247c-.474.311-1.035 1.64-1.948 2.353-.535.419-.989.581-1.502.608-.787.044-1.131-.147-1.448-.237-.534-.152-1.04-5.652-1.04-5.652z"/><path fill="#94d77e" style="fill:var(--color17,#94d77e)" d="M9.295 22.134s-1.071-.782-.774-2.263c.265-1.323 1.039-1.879 1.39-3.108.348-1.219.142-1.753.053-2.331-.097-.631-.148-.679-.076-.711.076-.034.779 1.9.779 1.944.015.56.174 1.502.056 2.073s-1.231 1.39-1.303 1.947c-.073.556-.294 1.802-.161 2.137.132.337.776.456.776.456l-.74-.143z"/><path fill="#7abb66" style="fill:var(--color18,#7abb66)" d="M12.395 22.115c.147.014 1.303-.147 2.094-1.186s.776-2.269.761-2.226c-.014.044-2.035.263-2.065.952-.029.687-.79 2.46-.79 2.46z"/><path fill="#ffede3" style="fill:var(--color5,#ffede3)" d="M9.916 22.569s-1.113-.364-1.013-1.893c.097-1.492 1.302-2.168 1.521-3.844.107-.811-.119-1.444-.319-2.123-.218-.74-.395-1.457-.274-1.216.189.376.327.621.766 1.679.263.634.474 1.398.376 2.171-.16 1.256-1.345 2.282-1.447 3.319-.119 1.216.492 1.737.492 1.737l-.102.169z"/><path fill="#ffede3" style="fill:var(--color5,#ffede3)" d="M10.523 23.714c-.374-.331-.898-1.037-.639-1.955.339-1.197 1.077-1.576 1.815-2.694s.858-2.169.873-3.289c.019-1.497.105-2.697.364-2.776s.126 1.494.185 2.79c.042.897.153 2.276.153 2.276s.792-.665.982-1.563c.339-1.595-.3-3.323-.164-5.119.102-1.337.735-2.636 1.376-3.331.458-.498.918-.877 1.056-.798s-.798 1.037-1.216 2.155c-.418 1.118-.516 2.215-.356 3.411s.384 2.384.524 2.344c.14-.04.994-1.737 1.26-3.042.26-1.277.392-2.134 1.01-2.992s1.337-1.356 1.457-1.237c.211.211-.574.597-1.092 1.873-.31.761-.303 1.286-.571 2.605-.137.679-.647 2.198-.627 2.26s.719-.294 1.218-.652 1.373-1.023 2.15-2.04c.44-.577.737-1.053.937-.915.2.14-.694 1.861-1.519 2.631-1.177 1.097-2.69 1.918-2.69 2.076s1.442.031 2.879-.366c1.156-.319 2.387-1.21 2.527-.99s-1.297 1.034-2.232 1.397c-1.497.579-2.755.519-3.613 1.037-.858.519-1.371 1.377-1.456 1.535-.031.056 1.435-.339 2.832-.539s3.311-.877 3.371-.658-.698.658-2.374 1.056c-1.676.398-2.952.777-3.869 1.357s-1.495 1.281-1.974 2.118c-.479.837-.487 2.157-1.185 2.456-.46.197-1.048-.123-1.389-.421z"/><path fill="#f6ffea" style="fill:var(--color16,#f6ffea)" d="M8.056 22.952c-.206.103-.124.408-.002.594.185.285.5.61 1.253 1.198.585.456.879.665 1.218.811.264.115.531.121.574-.056.011-.045-.95-.669-1.555-1.15-1.042-.826-1.444-1.419-1.489-1.397z"/></symbol><symbol id="icon-dark-circle" viewBox="0 0 32 32"><path d="M16.001 2.196C8.377 2.196 2.197 8.376 2.197 16s6.18 13.804 13.804 13.804c7.623 0 13.804-6.18 13.804-13.804S23.624 2.196 16.001 2.196zm5.983 11.47a1.25 1.25 0 0 0-.14-1.789 1.254 1.254 0 0 0-1.787.184l-5.396 6.474-2.792-2.793a1.254 1.254 0 0 0-1.774 1.774l3.765 3.765a1.252 1.252 0 0 0 1.851-.084l6.275-7.529z"/></symbol><symbol id="icon-plus-Pressed-State" viewBox="0 0 32 32"><path fill="#c4c7c7" style="fill:var(--color28,#c4c7c7)" d="M31.36 16c0 8.483-6.877 15.36-15.36 15.36S.64 24.483.64 16 7.517.64 16 .64 31.36 7.517 31.36 16z"/><path fill="#fff" style="fill:var(--color3,#fff)" d="M22.13 16.3c0 .244-.15.366-.451.366l-11.405.028c-.131 0-.225-.028-.282-.084s-.084-.141-.084-.253v-1.211c0-.225.084-.338.253-.338h11.686c.188 0 .282.094.282.282v1.211zm-6.646 5.547c-.263 0-.394-.15-.394-.451l-.028-11.405c0-.15.028-.244.084-.282.056-.056.141-.084.253-.084h1.211c.225 0 .338.084.338.253l.028 11.686c0 .188-.094.282-.282.282h-1.211z"/></symbol><symbol id="icon-burger-24" viewBox="0 0 32 32"><path d="M23.308 21.555H8.686c-.139 0-.271-.083-.369-.23s-.153-.346-.153-.554c0-.208.055-.407.153-.554s.231-.23.369-.23h14.622c.139 0 .271.083.369.23s.153.346.153.554c0 .208-.055.407-.153.554s-.231.23-.369.23zM23.308 16.853H8.686c-.139 0-.271-.083-.369-.23s-.153-.346-.153-.554c0-.208.055-.407.153-.554s.231-.229.369-.229h14.622c.139 0 .271.083.369.229s.153.346.153.554c0 .208-.055.407-.153.554s-.231.23-.369.23zM23.308 12.151H8.686c-.139 0-.271-.083-.369-.229s-.153-.346-.153-.554c0-.208.055-.407.153-.554s.231-.23.369-.23h14.622c.139 0 .271.083.369.23s.153.346.153.554c0 .208-.055.407-.153.554s-.231.229-.369.229z"/></symbol><symbol id="icon-burger-36" viewBox="0 0 32 32"><path d="M26.963 24.333H5.029c-.208 0-.407-.124-.554-.344s-.229-.519-.229-.831c0-.312.083-.611.229-.831s.346-.344.554-.344h21.934c.208 0 .407.124.554.344s.229.519.229.831-.083.611-.229.831c-.147.22-.346.344-.554.344zM26.963 17.28H5.029c-.208 0-.407-.124-.554-.344s-.229-.519-.229-.831.083-.611.229-.831c.147-.22.346-.344.554-.344h21.934c.208 0 .407.124.554.344s.229.519.229.831-.083.611-.229.831c-.147.22-.346.344-.554.344zM26.963 10.227H5.029c-.208 0-.407-.124-.554-.344s-.229-.519-.229-.831c0-.312.083-.611.229-.831s.346-.344.554-.344h21.934c.208 0 .407.124.554.344s.229.519.229.831-.083.611-.229.831c-.147.22-.346.344-.554.344z"/></symbol><symbol id="icon-Property-250" viewBox="0 0 32 32"><path d="M23.387 21.615H8.607c-.14 0-.274-.083-.373-.232s-.155-.35-.155-.56c0-.21.056-.412.155-.56s.233-.232.373-.232h14.78c.14 0 .274.083.373.232s.155.35.155.56c0 .21-.056.412-.155.56s-.233.232-.373.232zM23.387 16.862H8.607c-.14 0-.274-.083-.373-.232s-.155-.35-.155-.56c0-.21.056-.412.155-.56s.233-.232.373-.232h14.78c.14 0 .274.083.373.232s.155.35.155.56c0 .21-.056.412-.155.56s-.233.232-.373.232zM23.387 12.11H8.607c-.14 0-.274-.083-.373-.232s-.155-.35-.155-.56c0-.21.056-.412.155-.56s.233-.232.373-.232h14.78c.14 0 .274.083.373.232s.155.35.155.56c0 .21-.056.412-.155.56s-.233.232-.373.232z"/></symbol><symbol id="icon-plus-Induced-State" viewBox="0 0 32 32"><path fill="#e76e0e" style="fill:var(--color27,#e76e0e)" d="M31.36 16c0 8.483-6.877 15.36-15.36 15.36S.64 24.483.64 16 7.517.64 16 .64 31.36 7.517 31.36 16z"/><path fill="#fff" style="fill:var(--color3,#fff)" d="M22.13 16.3c0 .244-.15.366-.451.366l-11.405.028c-.131 0-.225-.028-.282-.084s-.084-.141-.084-.253v-1.211c0-.225.084-.338.253-.338h11.686c.188 0 .282.094.282.282v1.211zm-6.646 5.547c-.263 0-.394-.15-.394-.451l-.028-11.405c0-.15.028-.244.084-.282.056-.056.141-.084.253-.084h1.211c.225 0 .338.084.338.253l.028 11.686c0 .188-.094.282-.282.282h-1.211z"/></symbol><symbol id="icon-plus-Normal-ondition" viewBox="0 0 32 32"><path fill="#ff8d40" style="fill:var(--color1,#ff8d40)" d="M31.36 16c0 8.483-6.877 15.36-15.36 15.36S.64 24.483.64 16 7.517.64 16 .64 31.36 7.517 31.36 16z"/><path fill="#fff" style="fill:var(--color3,#fff)" d="M22.13 16.3c0 .244-.15.366-.451.366l-11.405.028c-.131 0-.225-.028-.282-.084s-.084-.141-.084-.253v-1.211c0-.225.084-.338.253-.338h11.686c.188 0 .282.094.282.282v1.211zm-6.646 5.547c-.263 0-.394-.15-.394-.451l-.028-11.405c0-.15.028-.244.084-.282.056-.056.141-.084.253-.084h1.211c.225 0 .338.084.338.253l.028 11.686c0 .188-.094.282-.282.282h-1.211z"/></symbol><symbol id="icon-close-16" viewBox="0 0 33 32"><path d="M10.268 9.868a.914.914 0 0 1 1.293 0l4.839 4.839 4.839-4.839a.914.914 0 0 1 1.293 1.293L17.693 16l4.839 4.839a.914.914 0 0 1-1.293 1.293L16.4 17.293l-4.839 4.839a.914.914 0 0 1-1.293-1.293L15.107 16l-4.839-4.839a.914.914 0 0 1 0-1.293z"/></symbol><symbol id="icon-close-19" viewBox="0 0 32 32"><path d="M10.382 10.382a.886.886 0 0 1 1.253 0l4.691 4.691 4.691-4.691a.886.886 0 0 1 1.253 1.253l-4.691 4.691 4.691 4.691a.886.886 0 0 1-1.253 1.253l-4.691-4.691-4.691 4.691a.886.886 0 0 1-1.253-1.253l4.691-4.691-4.691-4.691a.886.886 0 0 1 0-1.253z"/></symbol><symbol id="icon-close-40" viewBox="0 0 32 32"><path d="M9.928 9.928a.904.904 0 0 1 1.28 0l4.791 4.791 4.791-4.791a.904.904 0 1 1 1.28 1.28l-4.791 4.791 4.791 4.791a.904.904 0 1 1-1.28 1.28l-4.791-4.791-4.791 4.791a.904.904 0 1 1-1.28-1.28l4.791-4.791-4.791-4.791a.904.904 0 0 1 0-1.28z"/></symbol><symbol id="icon-minus-nduced-State" viewBox="0 0 32 32"><path fill="#ff8d40" style="fill:var(--color1,#ff8d40)" d="M31.36 16c0 8.483-6.877 15.36-15.36 15.36S.64 24.483.64 16 7.517.64 16 .64 31.36 7.517 31.36 16z"/><path fill="#fff" style="fill:var(--color3,#fff)" d="M19.62 16.781c0 .263-.16.394-.479.394h-6.392c-.131 0-.225-.019-.282-.056-.056-.056-.084-.15-.084-.282v-1.239c0-.206.084-.31.253-.31l6.702-.028c.188 0 .282.094.282.282v1.239z"/></symbol><symbol id="icon-minus-ormal-ondition" viewBox="0 0 32 32"><path fill="#c4c7c7" style="fill:var(--color28,#c4c7c7)" d="M31.36 16c0 8.483-6.877 15.36-15.36 15.36S.64 24.483.64 16 7.517.64 16 .64 31.36 7.517 31.36 16z"/><path fill="#fff" style="fill:var(--color3,#fff)" d="M19.62 16.781c0 .263-.16.394-.479.394h-6.392c-.131 0-.225-.019-.282-.056-.056-.056-.084-.15-.084-.282v-1.239c0-.206.084-.31.253-.31l6.702-.028c.188 0 .282.094.282.282v1.239z"/></symbol><symbol id="icon-minus-Pressed-State" viewBox="0 0 32 32"><path fill="#e76e0e" style="fill:var(--color27,#e76e0e)" d="M31.36 16c0 8.483-6.877 15.36-15.36 15.36S.64 24.483.64 16 7.517.64 16 .64 31.36 7.517 31.36 16z"/><path fill="#fff" style="fill:var(--color3,#fff)" d="M19.62 16.781c0 .263-.16.394-.479.394h-6.392c-.131 0-.225-.019-.282-.056-.056-.056-.084-.15-.084-.282v-1.239c0-.206.084-.31.253-.31l6.702-.028c.188 0 .282.094.282.282v1.239z"/></symbol><symbol id="icon-close-Induced-State" viewBox="0 0 32 32"><path fill="#ff8d40" style="fill:var(--color1,#ff8d40)" d="M11.742 11.742a.635.635 0 0 1 .898 0l3.361 3.361 3.361-3.361a.635.635 0 1 1 .898.898l-3.361 3.361 3.361 3.361a.635.635 0 1 1-.898.898l-3.361-3.361-3.361 3.361a.635.635 0 1 1-.898-.898l3.361-3.361-3.361-3.361a.635.635 0 0 1 0-.898z"/></symbol><symbol id="icon-close-Normal-Condition-Mobile" viewBox="0 0 32 32"><path fill="#a9acac" style="fill:var(--color10,#a9acac)" d="M8.335 8.335a1.143 1.143 0 0 1 1.616 0L16 14.384l6.049-6.049a1.143 1.143 0 0 1 1.616 1.616L17.616 16l6.049 6.049a1.143 1.143 0 0 1-1.616 1.616L16 17.616l-6.049 6.049a1.143 1.143 0 0 1-1.616-1.616L14.384 16 8.335 9.951a1.143 1.143 0 0 1 0-1.616z"/></symbol><symbol id="icon-close-Normal-ondition" viewBox="0 0 32 32"><path fill="#a9acac" style="fill:var(--color10,#a9acac)" d="M11.742 11.742a.635.635 0 0 1 .898 0l3.361 3.361 3.361-3.361a.635.635 0 1 1 .898.898l-3.361 3.361 3.361 3.361a.635.635 0 1 1-.898.898l-3.361-3.361-3.361 3.361a.635.635 0 1 1-.898-.898l3.361-3.361-3.361-3.361a.635.635 0 0 1 0-.898z"/></symbol><symbol id="icon-close-Pressed-State-Mobile" viewBox="0 0 32 32"><path fill="#ff8d40" style="fill:var(--color1,#ff8d40)" d="M8.335 8.335a1.143 1.143 0 0 1 1.616 0L16 14.384l6.049-6.049a1.143 1.143 0 0 1 1.616 1.616L17.616 16l6.049 6.049a1.143 1.143 0 0 1-1.616 1.616L16 17.616l-6.049 6.049a1.143 1.143 0 0 1-1.616-1.616L14.384 16 8.335 9.951a1.143 1.143 0 0 1 0-1.616z"/></symbol><symbol id="icon-close-ressed-State" viewBox="0 0 32 32"><path fill="#e76e0e" style="fill:var(--color27,#e76e0e)" d="M11.742 11.742a.635.635 0 0 1 .898 0l3.361 3.361 3.361-3.361a.635.635 0 1 1 .898.898l-3.361 3.361 3.361 3.361a.635.635 0 1 1-.898.898l-3.361-3.361-3.361 3.361a.635.635 0 1 1-.898-.898l3.361-3.361-3.361-3.361a.635.635 0 0 1 0-.898z"/></symbol><symbol id="icon-Signature-sushi" viewBox="0 0 32 32"><path fill="#ff8d40" style="fill:var(--color1,#ff8d40)" d="M29.894 12.223c-1.009-3.71-3.403-6.805-6.74-8.715s-7.219-2.406-10.928-1.397a14.286 14.286 0 0 0-6.294 3.602.517.517 0 0 0 .358.888.52.52 0 0 0 .368-.148 13.267 13.267 0 0 1 5.84-3.342c3.443-.936 7.045-.476 10.142 1.296s5.318 4.645 6.255 8.088c1.933 7.108-2.277 14.463-9.385 16.396-3.443.936-7.045.476-10.142-1.296S4.05 22.95 3.113 19.507a13.214 13.214 0 0 1 .629-8.809 13.53 13.53 0 0 1 1.026-1.923.516.516 0 0 0-.156-.716.516.516 0 0 0-.716.156 14.49 14.49 0 0 0-1.105 2.072 14.237 14.237 0 0 0-.679 9.492 14.296 14.296 0 0 0 6.74 8.714A14.311 14.311 0 0 0 19.78 29.89c7.66-2.083 12.196-10.008 10.112-17.667z"/><path fill="#ff8d40" style="fill:var(--color1,#ff8d40)" d="M8.715 22.384a9.674 9.674 0 0 0 7.289 3.309c5.345 0 9.694-4.348 9.694-9.693s-4.349-9.693-9.694-9.693a9.59 9.59 0 0 0-1.058.058l-.017.002C10.088 6.904 6.31 11.019 6.31 16a9.65 9.65 0 0 0 2.312 6.275c.026.04.058.077.094.109zm7.289 2.274a8.629 8.629 0 0 1-5.896-2.323c1.751-.38 4.242-1.309 6.157-3.585a10.244 10.244 0 0 0 1.538-2.477c2.112 2.207 4.616 3.125 5.999 3.487-1.402 2.896-4.371 4.898-7.799 4.898zm8.658-8.657a8.61 8.61 0 0 1-.462 2.792c-1.32-.33-4.876-1.519-7.061-5.065-1.498-2.431-1.7-4.893-1.646-6.369.169-.01.34-.016.511-.016 4.774 0 8.658 3.884 8.658 8.658zM14.453 7.482c-.037 1.624.222 4.219 1.804 6.788.241.391.504.767.787 1.128 0 .001-4.885-2.918-.002.004a9.272 9.272 0 0 1-1.569 2.681c-1.966 2.335-4.623 3.104-6.201 3.356A8.618 8.618 0 0 1 7.345 16c-.001-4.244 3.069-7.785 7.107-8.518z"/><path fill="none" stroke="#ff8d40" style="stroke:var(--color1,#ff8d40)" stroke-width=".4" d="M29.894 12.223c-1.009-3.71-3.403-6.805-6.74-8.715s-7.219-2.406-10.928-1.397a14.286 14.286 0 0 0-6.294 3.602.517.517 0 0 0 .358.888.52.52 0 0 0 .368-.148 13.267 13.267 0 0 1 5.84-3.342c3.443-.936 7.045-.476 10.142 1.296s5.318 4.645 6.255 8.088c1.933 7.108-2.277 14.463-9.385 16.396-3.443.936-7.045.476-10.142-1.296S4.05 22.95 3.113 19.507a13.214 13.214 0 0 1 .629-8.809 13.53 13.53 0 0 1 1.026-1.923.516.516 0 0 0-.156-.716.516.516 0 0 0-.716.156 14.49 14.49 0 0 0-1.105 2.072 14.237 14.237 0 0 0-.679 9.492 14.296 14.296 0 0 0 6.74 8.714A14.311 14.311 0 0 0 19.78 29.89c7.66-2.083 12.196-10.008 10.112-17.667z"/><path fill="none" stroke="#ff8d40" style="stroke:var(--color1,#ff8d40)" stroke-width=".4" d="M8.715 22.384a9.674 9.674 0 0 0 7.289 3.309c5.345 0 9.694-4.348 9.694-9.693s-4.349-9.693-9.694-9.693a9.59 9.59 0 0 0-1.058.058l-.017.002C10.088 6.904 6.31 11.019 6.31 16a9.65 9.65 0 0 0 2.312 6.275c.026.04.058.077.094.109zm7.289 2.274a8.629 8.629 0 0 1-5.896-2.323c1.751-.38 4.242-1.309 6.157-3.585a10.244 10.244 0 0 0 1.538-2.477c2.112 2.207 4.616 3.125 5.999 3.487-1.402 2.896-4.371 4.898-7.799 4.898zm8.658-8.657a8.61 8.61 0 0 1-.462 2.792c-1.32-.33-4.876-1.519-7.061-5.065-1.498-2.431-1.7-4.893-1.646-6.369.169-.01.34-.016.511-.016 4.774 0 8.658 3.884 8.658 8.658zM14.453 7.482c-.037 1.624.222 4.219 1.804 6.788.241.391.504.767.787 1.128 0 .001-4.885-2.918-.002.004a9.272 9.272 0 0 1-1.569 2.681c-1.966 2.335-4.623 3.104-6.201 3.356A8.618 8.618 0 0 1 7.345 16c-.001-4.244 3.069-7.785 7.107-8.518z"/></symbol><symbol id="icon-Sushi-maki" viewBox="0 0 32 32"><path fill="#ff8d40" style="fill:var(--color1,#ff8d40)" d="m28.939 7.173-9.815-4.925c-1.723-.864-4.526-.864-6.248 0l-1.458.732c-.123.064-.213.169-.252.294s-.022.257.046.37c.068.113.182.197.318.234s.281.024.406-.037l1.458-.732c1.412-.709 3.799-.709 5.211 0l9.815 4.925c.574.288.903.655.903 1.007s-.329.719-.903 1.006l-9.815 4.925c-1.412.709-3.798.709-5.211 0l-9.815-4.925c-.573-.288-.903-.655-.903-1.006s.329-.719.903-1.007l5.536-2.777a.503.503 0 0 0 .264-.294.445.445 0 0 0-.044-.378c-.034-.057-.081-.108-.137-.148s-.12-.071-.189-.088a.582.582 0 0 0-.414.046L3.059 7.172c-.939.471-1.458 1.132-1.461 1.862v.006l.001 13.864c-.022.686.453 1.41 1.157 1.764l9.815 4.925c.978.491 2.142.755 3.288.789a.58.58 0 0 0 .262.004c1.091-.001 2.151-.213 3.002-.64l9.815-4.925c.964-.484 1.495-1.189 1.459-1.939l.002-13.579a.502.502 0 0 0-.01-.095c.007-.056.01-.112.01-.167 0-.732-.518-1.395-1.461-1.868zm.383 15.747c.02.363-.308.742-.902 1.04l-9.815 4.925c-.584.293-1.306.46-2.067.505v-6.233c-.002-.129-.06-.252-.161-.343s-.236-.141-.378-.141-.277.051-.378.141a.472.472 0 0 0-.161.343v6.216c-.837-.074-1.667-.288-2.37-.641l-9.815-4.925c-.354-.178-.611-.554-.599-.877V10.691c.123.079.251.153.384.219l9.815 4.925c.724.364 1.64.573 2.586.631v4.34c.002.129.06.252.161.343s.236.141.378.141c.141 0 .277-.051.378-.141s.158-.214.161-.343v-4.34c.945-.058 1.861-.268 2.586-.631l9.815-4.925c.132-.066.26-.139.384-.219l-.002 12.203v.025z"/><path fill="#ff8d40" style="fill:var(--color1,#ff8d40)" d="M7.368 9.042c0 .498.353.961.969 1.271l5.731 2.876c.542.272 1.237.408 1.932.408s1.391-.136 1.932-.408l5.731-2.876c.616-.309.969-.772.969-1.271s-.353-.961-.969-1.271l-3.58-1.797a.554.554 0 0 0-.244-.123l-1.906-.956c-1.084-.544-2.781-.544-3.865 0L8.337 7.771c-.616.309-.969.772-.969 1.271zm10.046 3.284c-.753.378-2.074.378-2.827 0l-2.096-1.052 3.498-2.11 3.842 1.95-2.416 1.213zm6.142-3.284c0 .125-.157.281-.411.408l-2.199 1.104L17 8.552l2.716-1.639 3.428 1.72c.253.127.411.284.411.408h.001zm-8.97-3.284c.376-.189.895-.283 1.414-.283s1.037.094 1.413.283l1.237.62-2.711 1.636-2.909-1.475 1.556-.781zM8.855 8.634l3.06-1.536 3.01 1.527-3.503 2.114L8.854 9.45c-.253-.127-.411-.284-.411-.408s.158-.281.411-.408z"/><path fill="none" stroke="#ff8d40" style="stroke:var(--color1,#ff8d40)" stroke-width=".4" d="m28.939 7.173-9.815-4.925c-1.723-.864-4.526-.864-6.248 0l-1.458.732c-.123.064-.213.169-.252.294s-.022.257.046.37c.068.113.182.197.318.234s.281.024.406-.037l1.458-.732c1.412-.709 3.799-.709 5.211 0l9.815 4.925c.574.288.903.655.903 1.007s-.329.719-.903 1.006l-9.815 4.925c-1.412.709-3.798.709-5.211 0l-9.815-4.925c-.573-.288-.903-.655-.903-1.006s.329-.719.903-1.007l5.536-2.777a.503.503 0 0 0 .264-.294.445.445 0 0 0-.044-.378c-.034-.057-.081-.108-.137-.148s-.12-.071-.189-.088a.582.582 0 0 0-.414.046L3.059 7.172c-.939.471-1.458 1.132-1.461 1.862v.006l.001 13.864c-.022.686.453 1.41 1.157 1.764l9.815 4.925c.978.491 2.142.755 3.288.789a.58.58 0 0 0 .262.004c1.091-.001 2.151-.213 3.002-.64l9.815-4.925c.964-.484 1.495-1.189 1.459-1.939l.002-13.579a.502.502 0 0 0-.01-.095c.007-.056.01-.112.01-.167 0-.732-.518-1.395-1.461-1.868zm.383 15.747c.02.363-.308.742-.902 1.04l-9.815 4.925c-.584.293-1.306.46-2.067.505v-6.233c-.002-.129-.06-.252-.161-.343s-.236-.141-.378-.141-.277.051-.378.141a.472.472 0 0 0-.161.343v6.216c-.837-.074-1.667-.288-2.37-.641l-9.815-4.925c-.354-.178-.611-.554-.599-.877V10.691c.123.079.251.153.384.219l9.815 4.925c.724.364 1.64.573 2.586.631v4.34c.002.129.06.252.161.343s.236.141.378.141c.141 0 .277-.051.378-.141s.158-.214.161-.343v-4.34c.945-.058 1.861-.268 2.586-.631l9.815-4.925c.132-.066.26-.139.384-.219l-.002 12.203v.025z"/><path fill="none" stroke="#ff8d40" style="stroke:var(--color1,#ff8d40)" stroke-width=".4" d="M7.368 9.042c0 .498.353.961.969 1.271l5.731 2.876c.542.272 1.237.408 1.932.408s1.391-.136 1.932-.408l5.731-2.876c.616-.309.969-.772.969-1.271s-.353-.961-.969-1.271l-3.58-1.797a.554.554 0 0 0-.244-.123l-1.906-.956c-1.084-.544-2.781-.544-3.865 0L8.337 7.771c-.616.309-.969.772-.969 1.271zm10.046 3.284c-.753.378-2.074.378-2.827 0l-2.096-1.052 3.498-2.11 3.842 1.95-2.416 1.213zm6.142-3.284c0 .125-.157.281-.411.408l-2.199 1.104L17 8.552l2.716-1.639 3.428 1.72c.253.127.411.284.411.408h.001zm-8.97-3.284c.376-.189.895-.283 1.414-.283s1.037.094 1.413.283l1.237.62-2.711 1.636-2.909-1.475 1.556-.781zM8.855 8.634l3.06-1.536 3.01 1.527-3.503 2.114L8.854 9.45c-.253-.127-.411-.284-.411-.408s.158-.281.411-.408z"/></symbol><symbol id="icon-Sushi-philadelphia" viewBox="0 0 32 32"><path fill="#ff8d40" style="fill:var(--color1,#ff8d40)" d="M20.048 10.7H11.92c-1.589 0-2.882 1.304-2.882 2.906v8.196c0 1.603 1.293 2.906 2.882 2.906h8.128c1.589 0 2.882-1.304 2.882-2.906v-8.196c0-1.603-1.293-2.907-2.882-2.907zm1.862 2.906v6.628c-1.159-.298-3.089-1.065-4.573-3.005-1.587-2.075-1.762-4.301-1.714-5.501h4.424c1.027 0 1.863.843 1.863 1.879zm-11.852 0c0-1.036.835-1.878 1.862-1.878h2.683c-.043 1.226.128 3.358 1.459 5.457a7.645 7.645 0 0 1-1.814 2.802c-1.436 1.399-3.099 1.888-4.175 2.057a1.95 1.95 0 0 1-.016-.241v-8.196zm11.853 8.197a1.872 1.872 0 0 1-1.862 1.878h-8.128a1.85 1.85 0 0 1-1.422-.667c1.213-.228 2.945-.811 4.459-2.287a8.63 8.63 0 0 0 1.808-2.576c1.744 2.099 3.941 2.867 5.145 3.141v.51z"/><path fill="#ff8d40" style="fill:var(--color1,#ff8d40)" d="M30.368 11.034V8.872c0-3.127-2.523-5.671-5.624-5.671H7.224C4.123 3.201 1.6 5.745 1.6 8.872v2.162c0 .313.123.612.342.834a1.164 1.164 0 0 0 1.117.31l1.923-.492v12.701c0 2.434 1.964 4.414 4.378 4.414h13.25c2.414 0 4.378-1.98 4.378-4.414V11.686l1.923.492a1.161 1.161 0 0 0 1.157-.353.517.517 0 0 0 .29-.274.51.51 0 0 0 .004-.401c.004-.038.006-.077.006-.116zm-1.02-2.163v.936l-4.311-5.568c2.403.153 4.311 2.171 4.311 4.632zm-9.334-4.642 1.843 2.381h-4.212l-1.843-2.381h4.211zm-5.507 0L16.35 6.61h-4.158l-1.843-2.381h4.158zm-7.284 0H9.06c.01.017.022.034.034.049l1.805 2.331h-1.54c-.074 0-.147.002-.219.006l-.072.005c-.048.003-.097.006-.145.011l-.085.01-.128.016c-.03.004-.059.01-.089.015l-.121.022-.091.02-.116.027-.091.025-.112.032-.09.029-.109.037-.088.033-.106.042-.087.037a3.225 3.225 0 0 0-.103.047l-.085.041-.101.052c-.027.015-.055.029-.082.045l-.099.057c-.027.016-.053.031-.079.048-.033.02-.065.041-.097.063l-.075.05a2.084 2.084 0 0 0-.095.069l-.071.052-.095.075-.066.053-.015.012-1.981-2.559a4.551 4.551 0 0 1 2.656-.854h-.001zM2.807 11.18a.15.15 0 0 1-.129-.028.148.148 0 0 1-.058-.12V8.87a4.644 4.644 0 0 1 1.184-3.104l2.038 2.632-.029.042a3.18 3.18 0 0 0-.119.175l-.064.101a3.173 3.173 0 0 0-.104.179l-.043.082a3.304 3.304 0 0 0-.052.103l-.04.085a3.282 3.282 0 0 0-.047.104l-.037.088-.042.106-.033.091-.037.108a3.314 3.314 0 0 0-.06.203l-.025.094a3.739 3.739 0 0 0-.066.325l-.016.096c-.006.039-.01.079-.015.119l-.011.096-.003.023-2.192.561zm23.16 13.206c0 1.868-1.506 3.386-3.358 3.386H9.359c-1.852 0-3.358-1.519-3.358-3.386V11.024c0-1.868 1.506-3.386 3.358-3.386h13.25c1.852 0 3.358 1.519 3.358 3.386v13.362zm1.002-13.767-.003-.025-.011-.093a41.27 41.27 0 0 0-.015-.122l-.015-.093c-.007-.04-.013-.08-.021-.119l-.019-.093c-.009-.039-.017-.078-.027-.116-.007-.031-.016-.061-.024-.091l-.032-.114-.028-.09-.037-.111a3.11 3.11 0 0 0-.075-.197l-.035-.085-.048-.107c-.012-.028-.026-.055-.039-.082-.017-.036-.036-.071-.054-.106-.014-.026-.027-.053-.042-.079a2.808 2.808 0 0 0-.104-.179 3.745 3.745 0 0 0-.067-.105l-.045-.069-.075-.107-.044-.062a3.244 3.244 0 0 0-.09-.115l-.037-.047a4.446 4.446 0 0 0-.276-.307l-.037-.036-.111-.107-.055-.048c-.033-.029-.066-.059-.1-.087a3.64 3.64 0 0 0-.161-.128l-.069-.051a3.417 3.417 0 0 0-.171-.119l-.098-.064-.078-.047a3.26 3.26 0 0 0-.1-.058l-.081-.044a4.964 4.964 0 0 0-.102-.053l-.084-.041-.104-.048-.086-.037a1.978 1.978 0 0 0-.107-.042l-.088-.033a4.737 4.737 0 0 0-.11-.037l-.089-.029a3.724 3.724 0 0 0-.113-.032l-.09-.025c-.038-.01-.077-.018-.116-.027a2.903 2.903 0 0 0-.211-.042c-.03-.005-.059-.011-.089-.015l-.086-.011a.548.548 0 0 0-.046-.072l-1.819-2.346h2.426l5.372 6.938-2.138-.548z"/><path fill="none" stroke="#ff8d40" style="stroke:var(--color1,#ff8d40)" stroke-width=".4" d="M20.048 10.7H11.92c-1.589 0-2.882 1.304-2.882 2.906v8.196c0 1.603 1.293 2.906 2.882 2.906h8.128c1.589 0 2.882-1.304 2.882-2.906v-8.196c0-1.603-1.293-2.907-2.882-2.907zm1.862 2.906v6.628c-1.159-.298-3.089-1.065-4.573-3.005-1.587-2.075-1.762-4.301-1.714-5.501h4.424c1.027 0 1.863.843 1.863 1.879zm-11.852 0c0-1.036.835-1.878 1.862-1.878h2.683c-.043 1.226.128 3.358 1.459 5.457a7.645 7.645 0 0 1-1.814 2.802c-1.436 1.399-3.099 1.888-4.175 2.057a1.95 1.95 0 0 1-.016-.241v-8.196zm11.853 8.197a1.872 1.872 0 0 1-1.862 1.878h-8.128a1.85 1.85 0 0 1-1.422-.667c1.213-.228 2.945-.811 4.459-2.287a8.63 8.63 0 0 0 1.808-2.576c1.744 2.099 3.941 2.867 5.145 3.141v.51z"/><path fill="none" stroke="#ff8d40" style="stroke:var(--color1,#ff8d40)" stroke-width=".4" d="M30.368 11.034V8.872c0-3.127-2.523-5.671-5.624-5.671H7.224C4.123 3.201 1.6 5.745 1.6 8.872v2.162c0 .313.123.612.342.834a1.164 1.164 0 0 0 1.117.31l1.923-.492v12.701c0 2.434 1.964 4.414 4.378 4.414h13.25c2.414 0 4.378-1.98 4.378-4.414V11.686l1.923.492a1.161 1.161 0 0 0 1.157-.353.517.517 0 0 0 .29-.274.51.51 0 0 0 .004-.401c.004-.038.006-.077.006-.116zm-1.02-2.163v.936l-4.311-5.568c2.403.153 4.311 2.171 4.311 4.632zm-9.334-4.642 1.843 2.381h-4.212l-1.843-2.381h4.211zm-5.507 0L16.35 6.61h-4.158l-1.843-2.381h4.158zm-7.284 0H9.06c.01.017.022.034.034.049l1.805 2.331h-1.54c-.074 0-.147.002-.219.006l-.072.005c-.048.003-.097.006-.145.011l-.085.01-.128.016c-.03.004-.059.01-.089.015l-.121.022-.091.02-.116.027-.091.025-.112.032-.09.029-.109.037-.088.033-.106.042-.087.037a3.225 3.225 0 0 0-.103.047l-.085.041-.101.052c-.027.015-.055.029-.082.045l-.099.057c-.027.016-.053.031-.079.048-.033.02-.065.041-.097.063l-.075.05a2.084 2.084 0 0 0-.095.069l-.071.052-.095.075-.066.053-.015.012-1.981-2.559a4.551 4.551 0 0 1 2.656-.854h-.001zM2.807 11.18a.15.15 0 0 1-.129-.028.148.148 0 0 1-.058-.12V8.87a4.644 4.644 0 0 1 1.184-3.104l2.038 2.632-.029.042a3.18 3.18 0 0 0-.119.175l-.064.101a3.173 3.173 0 0 0-.104.179l-.043.082a3.304 3.304 0 0 0-.052.103l-.04.085a3.282 3.282 0 0 0-.047.104l-.037.088-.042.106-.033.091-.037.108a3.314 3.314 0 0 0-.06.203l-.025.094a3.739 3.739 0 0 0-.066.325l-.016.096c-.006.039-.01.079-.015.119l-.011.096-.003.023-2.192.561zm23.16 13.206c0 1.868-1.506 3.386-3.358 3.386H9.359c-1.852 0-3.358-1.519-3.358-3.386V11.024c0-1.868 1.506-3.386 3.358-3.386h13.25c1.852 0 3.358 1.519 3.358 3.386v13.362zm1.002-13.767-.003-.025-.011-.093a41.27 41.27 0 0 0-.015-.122l-.015-.093c-.007-.04-.013-.08-.021-.119l-.019-.093c-.009-.039-.017-.078-.027-.116-.007-.031-.016-.061-.024-.091l-.032-.114-.028-.09-.037-.111a3.11 3.11 0 0 0-.075-.197l-.035-.085-.048-.107c-.012-.028-.026-.055-.039-.082-.017-.036-.036-.071-.054-.106-.014-.026-.027-.053-.042-.079a2.808 2.808 0 0 0-.104-.179 3.745 3.745 0 0 0-.067-.105l-.045-.069-.075-.107-.044-.062a3.244 3.244 0 0 0-.09-.115l-.037-.047a4.446 4.446 0 0 0-.276-.307l-.037-.036-.111-.107-.055-.048c-.033-.029-.066-.059-.1-.087a3.64 3.64 0 0 0-.161-.128l-.069-.051a3.417 3.417 0 0 0-.171-.119l-.098-.064-.078-.047a3.26 3.26 0 0 0-.1-.058l-.081-.044a4.964 4.964 0 0 0-.102-.053l-.084-.041-.104-.048-.086-.037a1.978 1.978 0 0 0-.107-.042l-.088-.033a4.737 4.737 0 0 0-.11-.037l-.089-.029a3.724 3.724 0 0 0-.113-.032l-.09-.025c-.038-.01-.077-.018-.116-.027a2.903 2.903 0 0 0-.211-.042c-.03-.005-.059-.011-.089-.015l-.086-.011a.548.548 0 0 0-.046-.072l-1.819-2.346h2.426l5.372 6.938-2.138-.548z"/></symbol><symbol id="icon-Sushi-sets" viewBox="0 0 32 32"><path fill="#ff8d40" style="fill:var(--color1,#ff8d40)" d="M12.604 1.6H4.588C2.94 1.6 1.6 2.953 1.6 4.617v1.206a.655.655 0 0 0 .649.644c.17 0 .334-.068.455-.188s.191-.284.194-.456V4.617c.001-.453.179-.887.496-1.207s.747-.5 1.195-.501h8.016c.448.001.878.181 1.195.501s.495.754.496 1.207v8.093c-.001.453-.179.887-.496 1.207s-.747.5-1.195.501H4.589c-.448-.001-.878-.181-1.195-.501s-.495-.754-.496-1.207V8.277a.668.668 0 0 0-.186-.47.656.656 0 0 0-.463-.196.64.64 0 0 0-.463.196.644.644 0 0 0-.186.47v4.433c0 1.664 1.341 3.017 2.988 3.017h8.016c1.648 0 2.988-1.353 2.988-3.017V4.617c0-1.664-1.34-3.017-2.988-3.017z"/><path fill="#ff8d40" style="fill:var(--color1,#ff8d40)" d="M6.138 13.249h4.917c.552-.001 1.082-.223 1.472-.617s.61-.929.611-1.487V6.181c-.001-.558-.221-1.092-.611-1.487s-.92-.616-1.472-.617H6.138c-.552.001-1.082.223-1.473.617s-.61.929-.611 1.487v4.964c.001.558.221 1.092.611 1.487s.92.616 1.473.617zm-.787-7.068a.795.795 0 0 1 .787-.794h4.917c.209 0 .409.084.556.233s.23.351.231.561v4.964a.795.795 0 0 1-.787.794H6.138c-.209 0-.409-.084-.556-.233s-.23-.351-.231-.561V6.181zM27.412 1.6h-8.016c-1.648 0-2.988 1.353-2.988 3.017v1.206a.655.655 0 0 0 .649.644c.17 0 .334-.068.455-.188s.191-.284.194-.456V4.617c.001-.453.179-.887.496-1.207s.747-.5 1.195-.501h8.016c.448.001.878.181 1.195.501s.495.754.496 1.207v8.093c0 .453-.179.887-.496 1.207s-.747.5-1.195.501h-8.016c-.448 0-.878-.181-1.195-.501s-.496-.754-.496-1.207V8.277a.668.668 0 0 0-.186-.47.646.646 0 0 0-1.066.216.65.65 0 0 0-.046.254v4.433c0 1.664 1.34 3.017 2.988 3.017h8.016c1.648 0 2.988-1.353 2.988-3.017V4.617c0-1.664-1.34-3.017-2.988-3.017z"/><path fill="#ff8d40" style="fill:var(--color1,#ff8d40)" d="M20.945 13.249h4.917c.552-.001 1.082-.223 1.473-.617s.61-.929.611-1.487V6.181c-.001-.558-.221-1.092-.611-1.487s-.92-.616-1.473-.617h-4.917c-.552.001-1.082.223-1.473.617s-.61.929-.611 1.487v4.964c.001.558.221 1.092.611 1.487s.92.616 1.473.617zm-.786-7.068a.795.795 0 0 1 .787-.794h4.917c.209 0 .408.084.556.233s.23.351.231.561v4.964a.795.795 0 0 1-.787.794h-4.917c-.209 0-.408-.084-.556-.233s-.23-.351-.231-.561V6.181zM12.604 16.273H4.588c-1.648 0-2.988 1.354-2.988 3.017v1.206a.655.655 0 0 0 .649.644c.17 0 .334-.068.455-.188a.659.659 0 0 0 .194-.456V19.29c.001-.453.179-.887.496-1.207s.747-.5 1.195-.501h8.016c.448.001.878.181 1.195.501s.495.754.496 1.207v8.093c0 .453-.179.887-.496 1.207s-.747.5-1.195.501H4.589c-.448 0-.878-.181-1.195-.501s-.495-.754-.496-1.207v-4.432a.655.655 0 0 0-.649-.644c-.17 0-.334.068-.455.188s-.191.284-.194.456v4.433c0 1.664 1.341 3.017 2.988 3.017h8.016c1.648 0 2.988-1.354 2.988-3.017v-8.093c0-1.663-1.34-3.017-2.988-3.017z"/><path fill="#ff8d40" style="fill:var(--color1,#ff8d40)" d="M6.138 27.922h4.917c.552-.001 1.082-.223 1.472-.617s.61-.929.611-1.487v-4.964c-.001-.558-.221-1.092-.611-1.487s-.92-.616-1.472-.617H6.138c-.552.001-1.082.223-1.473.617s-.61.929-.611 1.487v4.964c.001.558.221 1.092.611 1.487s.92.616 1.473.617zm-.787-7.068a.795.795 0 0 1 .787-.794h4.917c.209 0 .408.084.556.233s.23.351.231.561v4.964c0 .21-.083.412-.231.561s-.347.233-.556.233H6.138c-.209 0-.409-.084-.556-.233s-.23-.351-.231-.561v-4.964zM27.412 16.273h-8.016c-1.648 0-2.988 1.354-2.988 3.017v1.206a.655.655 0 0 0 .649.644c.17 0 .334-.068.455-.188s.191-.284.194-.456V19.29c.001-.453.179-.887.496-1.207s.747-.5 1.195-.501h8.016c.448.001.878.181 1.195.501s.495.754.496 1.207v8.093c0 .453-.179.887-.496 1.207s-.747.5-1.195.501h-8.016c-.448 0-.878-.18-1.196-.501s-.495-.754-.496-1.207v-4.432a.655.655 0 0 0-.649-.644c-.17 0-.334.068-.455.188s-.191.284-.194.456v4.433c0 1.664 1.34 3.017 2.988 3.017h8.016c1.648 0 2.988-1.354 2.988-3.017v-8.093c0-1.663-1.34-3.017-2.988-3.017z"/><path fill="#ff8d40" style="fill:var(--color1,#ff8d40)" d="M20.945 27.922h4.917c.552-.001 1.082-.223 1.473-.617s.61-.929.611-1.487v-4.964c-.001-.558-.221-1.092-.611-1.487s-.92-.616-1.473-.617h-4.917c-.552.001-1.082.223-1.473.617s-.61.929-.611 1.487v4.964c.001.558.221 1.092.611 1.487s.92.616 1.473.617zm-.786-7.068a.795.795 0 0 1 .787-.794h4.917c.208 0 .408.084.556.233s.23.351.231.561v4.964c0 .21-.083.412-.231.561s-.347.233-.556.233h-4.917c-.209 0-.408-.084-.556-.233s-.23-.351-.231-.561v-4.964z"/></symbol><symbol id="icon-Sushi" viewBox="0 0 32 32"><path fill="#ff8d40" style="fill:var(--color1,#ff8d40)" d="M29.871 12.177a3.284 3.284 0 0 0-1.942-.655c-.137 0-.274.009-.409.027-.19.025-.661.111-1.161.388a22.545 22.545 0 0 0-2.765-2.27 18.746 18.746 0 0 0-3.119-1.753c-1.8-.808-4.204-1.622-7.326-1.501a15.554 15.554 0 0 0-5.832 1.376 13.442 13.442 0 0 0-1.232.644c-1.348.796-2.459 1.786-3.253 2.91a10.301 10.301 0 0 0-.567.89c-.706 1.256-.853 2.281-.423 2.997.293.487.823.806 1.625 1.289.485.293.996.544 1.526.749l.124.048a8.293 8.293 0 0 0-.004.224v1.011c0 3.888 3.223 7.05 7.185 7.05h6.972c3.962 0 7.186-3.163 7.186-7.05V17.54c0-.136-.004-.272-.012-.407.106.063.216.12.329.172.295.136.631.16.943.068s.579-.294.748-.568c.286-.465.426-.986.406-1.508a2.626 2.626 0 0 0-.042-.374 2.723 2.723 0 0 0 1.302-.919 1.28 1.28 0 0 0 .089-1.448 1.306 1.306 0 0 0-.346-.38zm-5.939-.673c.042-.156.067-.315.075-.476.564.439 1.117.916 1.661 1.431a2.86 2.86 0 0 0-.598.898 26.918 26.918 0 0 0-1.735-.805c.286-.294.492-.654.598-1.047zm-.907-1.195c.076.179.117.37.122.564a1.446 1.446 0 0 1-.202.778c-.12.206-.283.384-.477.524l-.032.025a15.658 15.658 0 0 0-1.56-.473l-.177-.042c.118-.27.209-.552.271-.84.122-.576.129-1.17.02-1.749.705.359 1.385.763 2.035 1.21zm-3.056-1.691c.148.402.227.826.236 1.254a3.594 3.594 0 0 1-.372 1.642 13.303 13.303 0 0 0-2.166-.192 4.896 4.896 0 0 0-.26-3.608c.964.251 1.816.576 2.562.904zm-6.787-1.36a14.344 14.344 0 0 1 3.088.208c.139.198.261.408.364.626a4.078 4.078 0 0 1 .113 3.248 8.266 8.266 0 0 0-1.69.282c-.073.02-.147.042-.221.064a6.525 6.525 0 0 0-.347-1.679 6.773 6.773 0 0 0-1.79-2.722c.16-.012.32-.021.481-.028zm-1.652.159c.217.162.424.336.62.522a5.933 5.933 0 0 1 1.525 2.342 5.759 5.759 0 0 1 .315 1.713 9.016 9.016 0 0 0-2.129 1.257l-.011.009a5.395 5.395 0 0 0-.667-1.951c-.936-1.624-2.51-2.364-3.621-2.696a14.365 14.365 0 0 1 3.969-1.197zm-7.99 4.408c.71-1.004 1.705-1.886 2.887-2.602.107.016.247.04.412.077.934.205 2.652.796 3.592 2.427.313.544.508 1.143.581 1.785.017.149.027.3.031.453-.197.188-.402.394-.642.634-.429.43-.712.729-.724.741l-.2.213c-.173.185-.301.322-.464.477a4.71 4.71 0 0 0-1.034-2.418c-1.031-1.244-2.709-1.89-4.454-1.764l.016-.023zm.377 3.973c-.692-.416-1.149-.692-1.332-.997-.251-.417-.119-1.13.359-2.021l.164-.03c1.636-.273 3.255.256 4.201 1.397.701.845.865 1.806.884 2.444l.002.097a3.967 3.967 0 0 1-.37.211c-.635.308-1.955-.2-2.518-.417a8.907 8.907 0 0 1-1.39-.682zm21.666 2.753c0 3.416-2.832 6.195-6.314 6.195h-6.972c-3.481 0-6.314-2.779-6.314-6.195v-.934c.423.125.886.224 1.326.224.32 0 .628-.052.899-.184.319-.155.652-.388.666-.398.12-.084.293-.213.567-.46s.441-.426.671-.672l.197-.21c.003-.003.287-.304.708-.725.562-.563.901-.903 1.38-1.276a8.22 8.22 0 0 1 2.894-1.478c1.074-.296 1.956-.278 2.6-.264.61.012 1.587.088 2.776.378 1.356.33 2.609.866 3.776 1.443.159.223.303.455.431.696a3.225 3.225 0 0 0 .564 1.532c.096.433.144.874.144 1.317v1.011zm2.142-2.183a.453.453 0 0 1-.391.215.475.475 0 0 1-.197-.043c-.326-.15-.774-.431-1.077-.931-.292-.481-.447-1.162-.238-1.8l2.122 1.123c.037.131.058.265.064.401a1.85 1.85 0 0 1-.282 1.037zm1.717-2.874a1.841 1.841 0 0 1-1.102.684l-2.081-1.101c.54-.569 1.269-.675 1.375-.689.098-.013.197-.019.296-.019.635 0 1.129.268 1.425.486a.448.448 0 0 1 .087.638v.001z"/><path fill="#ff8d40" style="fill:var(--color1,#ff8d40)" d="M10.619 18.214c.189.108.402.167.62.172h.03c.228 0 .453-.059.65-.172.1-.057.172-.151.202-.26s.014-.226-.044-.324a.441.441 0 0 0-.595-.155.439.439 0 0 1-.425 0 .441.441 0 0 0-.59.159.42.42 0 0 0 .153.581zM18.695 17.204c.371 0 .641-.173.745-.252a.419.419 0 0 0 .165-.284.422.422 0 0 0-.216-.424.45.45 0 0 0-.331-.041.432.432 0 0 0-.152.075.351.351 0 0 1-.234.071.348.348 0 0 1-.181-.07.463.463 0 0 0-.322-.088.44.44 0 0 0-.291.161c-.035.044-.061.095-.077.149s-.02.111-.013.166a.433.433 0 0 0 .164.286 1.216 1.216 0 0 0 .741.253zM15.509 19.489a.561.561 0 0 1-.55 0 .442.442 0 0 0-.584.16.422.422 0 0 0 .144.578c.21.12.448.186.692.19h.024c.251 0 .498-.066.715-.19a.423.423 0 0 0 .144-.578.442.442 0 0 0-.584-.16zM22.692 18.665a.497.497 0 0 1-.262.079h-.005a.494.494 0 0 1-.267-.079.447.447 0 0 0-.484.002.42.42 0 0 0 .002.71c.222.144.482.221.749.221h.012c.262-.002.517-.079.735-.221a.42.42 0 0 0 .122-.592.44.44 0 0 0-.604-.121zM19.602 22.028a.578.578 0 0 1-.655 0c-.047-.032-.1-.055-.156-.068s-.114-.014-.17-.004a.441.441 0 0 0-.282.177.413.413 0 0 0-.071.32.43.43 0 0 0 .18.276c.23.158.501.247.781.255l.045.001c.296-.001.584-.09.827-.256a.438.438 0 0 0 .182-.276.432.432 0 0 0-.071-.322.439.439 0 0 0-.609-.105zM11.631 22.36a.838.838 0 0 1-.725-.001.433.433 0 0 0-.334-.019c-.054.019-.104.048-.147.085s-.078.083-.102.134a.418.418 0 0 0 .071.472.436.436 0 0 0 .137.1c.231.108.484.165.741.165l.088-.002c.226-.012.447-.067.651-.164a.421.421 0 0 0 .222-.244.422.422 0 0 0-.12-.46.445.445 0 0 0-.479-.067v.001z"/><path fill="none" stroke="#ff8d40" style="stroke:var(--color1,#ff8d40)" stroke-width=".4" d="M29.871 12.177a3.284 3.284 0 0 0-1.942-.655c-.137 0-.274.009-.409.027-.19.025-.661.111-1.161.388a22.545 22.545 0 0 0-2.765-2.27 18.746 18.746 0 0 0-3.119-1.753c-1.8-.808-4.204-1.622-7.326-1.501a15.554 15.554 0 0 0-5.832 1.376 13.442 13.442 0 0 0-1.232.644c-1.348.796-2.459 1.786-3.253 2.91a10.301 10.301 0 0 0-.567.89c-.706 1.256-.853 2.281-.423 2.997.293.487.823.806 1.625 1.289.485.293.996.544 1.526.749l.124.048a8.293 8.293 0 0 0-.004.224v1.011c0 3.888 3.223 7.05 7.185 7.05h6.972c3.962 0 7.186-3.163 7.186-7.05V17.54c0-.136-.004-.272-.012-.407.106.063.216.12.329.172.295.136.631.16.943.068s.579-.294.748-.568c.286-.465.426-.986.406-1.508a2.626 2.626 0 0 0-.042-.374 2.723 2.723 0 0 0 1.302-.919 1.28 1.28 0 0 0 .089-1.448 1.306 1.306 0 0 0-.346-.38zm-5.939-.673c.042-.156.067-.315.075-.476.564.439 1.117.916 1.661 1.431a2.86 2.86 0 0 0-.598.898 26.918 26.918 0 0 0-1.735-.805c.286-.294.492-.654.598-1.047zm-.907-1.195c.076.179.117.37.122.564a1.446 1.446 0 0 1-.202.778c-.12.206-.283.384-.477.524l-.032.025a15.658 15.658 0 0 0-1.56-.473l-.177-.042c.118-.27.209-.552.271-.84.122-.576.129-1.17.02-1.749.705.359 1.385.763 2.035 1.21zm-3.056-1.691c.148.402.227.826.236 1.254a3.594 3.594 0 0 1-.372 1.642 13.303 13.303 0 0 0-2.166-.192 4.896 4.896 0 0 0-.26-3.608c.964.251 1.816.576 2.562.904zm-6.787-1.36a14.344 14.344 0 0 1 3.088.208c.139.198.261.408.364.626a4.078 4.078 0 0 1 .113 3.248 8.266 8.266 0 0 0-1.69.282c-.073.02-.147.042-.221.064a6.525 6.525 0 0 0-.347-1.679 6.773 6.773 0 0 0-1.79-2.722c.16-.012.32-.021.481-.028zm-1.652.159c.217.162.424.336.62.522a5.933 5.933 0 0 1 1.525 2.342 5.759 5.759 0 0 1 .315 1.713 9.016 9.016 0 0 0-2.129 1.257l-.011.009a5.395 5.395 0 0 0-.667-1.951c-.936-1.624-2.51-2.364-3.621-2.696a14.365 14.365 0 0 1 3.969-1.197zm-7.99 4.408c.71-1.004 1.705-1.886 2.887-2.602.107.016.247.04.412.077.934.205 2.652.796 3.592 2.427.313.544.508 1.143.581 1.785.017.149.027.3.031.453-.197.188-.402.394-.642.634-.429.43-.712.729-.724.741l-.2.213c-.173.185-.301.322-.464.477a4.71 4.71 0 0 0-1.034-2.418c-1.031-1.244-2.709-1.89-4.454-1.764l.016-.023zm.377 3.973c-.692-.416-1.149-.692-1.332-.997-.251-.417-.119-1.13.359-2.021l.164-.03c1.636-.273 3.255.256 4.201 1.397.701.845.865 1.806.884 2.444l.002.097a3.967 3.967 0 0 1-.37.211c-.635.308-1.955-.2-2.518-.417a8.907 8.907 0 0 1-1.39-.682zm21.666 2.753c0 3.416-2.832 6.195-6.314 6.195h-6.972c-3.481 0-6.314-2.779-6.314-6.195v-.934c.423.125.886.224 1.326.224.32 0 .628-.052.899-.184.319-.155.652-.388.666-.398.12-.084.293-.213.567-.46s.441-.426.671-.672l.197-.21c.003-.003.287-.304.708-.725.562-.563.901-.903 1.38-1.276a8.22 8.22 0 0 1 2.894-1.478c1.074-.296 1.956-.278 2.6-.264.61.012 1.587.088 2.776.378 1.356.33 2.609.866 3.776 1.443.159.223.303.455.431.696a3.225 3.225 0 0 0 .564 1.532c.096.433.144.874.144 1.317v1.011zm2.142-2.183a.453.453 0 0 1-.391.215.475.475 0 0 1-.197-.043c-.326-.15-.774-.431-1.077-.931-.292-.481-.447-1.162-.238-1.8l2.122 1.123c.037.131.058.265.064.401a1.85 1.85 0 0 1-.282 1.037zm1.717-2.874a1.841 1.841 0 0 1-1.102.684l-2.081-1.101c.54-.569 1.269-.675 1.375-.689.098-.013.197-.019.296-.019.635 0 1.129.268 1.425.486a.448.448 0 0 1 .087.638v.001z"/><path fill="none" stroke="#ff8d40" style="stroke:var(--color1,#ff8d40)" stroke-width=".4" d="M10.619 18.214c.189.108.402.167.62.172h.03c.228 0 .453-.059.65-.172.1-.057.172-.151.202-.26s.014-.226-.044-.324a.441.441 0 0 0-.595-.155.439.439 0 0 1-.425 0 .441.441 0 0 0-.59.159.42.42 0 0 0 .153.581zM18.695 17.204c.371 0 .641-.173.745-.252a.419.419 0 0 0 .165-.284.422.422 0 0 0-.216-.424.45.45 0 0 0-.331-.041.432.432 0 0 0-.152.075.351.351 0 0 1-.234.071.348.348 0 0 1-.181-.07.463.463 0 0 0-.322-.088.44.44 0 0 0-.291.161c-.035.044-.061.095-.077.149s-.02.111-.013.166a.433.433 0 0 0 .164.286 1.216 1.216 0 0 0 .741.253zM15.509 19.489a.561.561 0 0 1-.55 0 .442.442 0 0 0-.584.16.422.422 0 0 0 .144.578c.21.12.448.186.692.19h.024c.251 0 .498-.066.715-.19a.423.423 0 0 0 .144-.578.442.442 0 0 0-.584-.16zM22.692 18.665a.497.497 0 0 1-.262.079h-.005a.494.494 0 0 1-.267-.079.447.447 0 0 0-.484.002.42.42 0 0 0 .002.71c.222.144.482.221.749.221h.012c.262-.002.517-.079.735-.221a.42.42 0 0 0 .122-.592.44.44 0 0 0-.604-.121zM19.602 22.028a.578.578 0 0 1-.655 0c-.047-.032-.1-.055-.156-.068s-.114-.014-.17-.004a.441.441 0 0 0-.282.177.413.413 0 0 0-.071.32.43.43 0 0 0 .18.276c.23.158.501.247.781.255l.045.001c.296-.001.584-.09.827-.256a.438.438 0 0 0 .182-.276.432.432 0 0 0-.071-.322.439.439 0 0 0-.609-.105zM11.631 22.36a.838.838 0 0 1-.725-.001.433.433 0 0 0-.334-.019c-.054.019-.104.048-.147.085s-.078.083-.102.134a.418.418 0 0 0 .071.472.436.436 0 0 0 .137.1c.231.108.484.165.741.165l.088-.002c.226-.012.447-.067.651-.164a.421.421 0 0 0 .222-.244.422.422 0 0 0-.12-.46.445.445 0 0 0-.479-.067v.001z"/></symbol><symbol id="Main-Logo-SUCHEFF" viewBox="0 0 204 32"><path fill="#ff8d40" style="fill:var(--color1,#ff8d40)" d="M178.359 2.659h26.085l-.962 5.286h-11.813l-.953 5.236 11.826.028-.94 5.396h-11.753c-1.847 13.352-2.565 13.622-16.503 13.153l.968-5.423c6.428.783 4.774-3.112 5.999-7.619l-4.658-.055.946-5.368h4.541l1.084-5.319h-4.724l.857-5.313zM147.921 2.659h26.085l-.957 5.286H161.23l-.951 5.236 11.819.028-.94 5.396h-11.746c-1.847 13.352-2.565 13.622-16.504 13.153l.963-5.423c6.427.783 4.78-3.112 6.004-7.619l-4.663-.055.952-5.368h4.54l1.113-5.319h-4.735l.84-5.313zM117.702 2.577h25.947l-.946 5.368H130.89l-.924 5.297h11.724l-.913 5.308h-11.774c-2.571 11.244-.217 7.459 10.333 8.061l-.868 5.175h-14.106c-4.759.022-6.829-1.721-6.21-5.23l1.43-8.005h-4.635l.924-5.308h4.696l.974-5.396-4.73.028.89-5.297zM90.158 0h9.537l-2.382 13.263h7.067l1.903-10.549 9.343.022-5.18 29.021h-9.32l2.265-13.286-6.927.022-1.413 8.166-9.432-.028 1.475-8.138h-2.443l.968-5.368h2.209L90.16-.001zM62.047 7.84c.757-8.441 17.884-4.497 23.448-5.346l-.991 5.423H71.322l-3.338 18.687 12.993.028-.851 5.126c-28.773.651-21.406.458-18.079-23.917zM49.689 2.604h9.459l-4.184 24.028c-.66 3.421-3.337 5.148-8.029 5.181-24.65.866-17.65-1.412-15.09-21.125l-2.354.028.963-5.479h11.724l-3.723 21.346h6.967L49.69 2.605zM4.234 7.917c.657-3.542 3.309-5.313 7.957-5.313h16.454l-.89 5.313H13.699l-.901 5.153c3.055.817 14.095 2.074 13.043 5.429l-1.43 8.105C23.671 34.907 5.526 30.896 0 31.785l.89-5.302h14.133l.963-5.153C12.965 20.536 1.797 19.2 2.782 16l1.452-8.083z"/></symbol></defs></svg>