<svg aria-hidden="true" style="position: absolute; width: 0; height: 0; overflow: hidden;" version="1.1" xmlns="http://www.w3.org/2000/svg" xmlns:xlink="http://www.w3.org/1999/xlink">
<defs>
<symbol id="Main-Logo-SUCHEFF" viewBox="0 0 204 32">
<path fill="#ff8d40" style="fill: var(--color1, #ff8d40)" d="M178.359 2.659h26.085l-0.962 5.286h-11.813l-0.953 5.236 11.826 0.028-0.94 5.396h-11.753c-1.847 13.352-2.565 13.622-16.503 13.153l0.968-5.423c6.428 0.783 4.774-3.112 5.999-7.619l-4.658-0.055 0.946-5.368h4.541l1.084-5.319h-4.724l0.857-5.313z"></path>
<path fill="#ff8d40" style="fill: var(--color1, #ff8d40)" d="M147.921 2.659h26.085l-0.957 5.286h-11.819l-0.951 5.236 11.819 0.028-0.94 5.396h-11.746c-1.847 13.352-2.565 13.622-16.504 13.153l0.963-5.423c6.427 0.783 4.78-3.112 6.004-7.619l-4.663-0.055 0.952-5.368h4.54l1.113-5.319h-4.735l0.84-5.313z"></path>
<path fill="#ff8d40" style="fill: var(--color1, #ff8d40)" d="M117.702 2.577h25.947l-0.946 5.368h-11.813l-0.924 5.297h11.724l-0.913 5.308h-11.774c-2.571 11.244-0.217 7.459 10.333 8.061l-0.868 5.175h-14.106c-4.759 0.022-6.829-1.721-6.21-5.23l1.43-8.005h-4.635l0.924-5.308h4.696l0.974-5.396-4.73 0.028 0.89-5.297z"></path>
<path fill="#ff8d40" style="fill: var(--color1, #ff8d40)" d="M90.158 0h9.537l-2.382 13.263h7.067l1.903-10.549 9.343 0.022-5.18 29.021h-9.32l2.265-13.286-6.927 0.022-1.413 8.166-9.432-0.028 1.475-8.138h-2.443l0.968-5.368h2.209l2.332-13.126z"></path>
<path fill="#ff8d40" style="fill: var(--color1, #ff8d40)" d="M62.047 7.84c0.757-8.441 17.884-4.497 23.448-5.346l-0.991 5.423h-13.182l-3.338 18.687 12.993 0.028-0.851 5.126c-28.773 0.651-21.406 0.458-18.079-23.917z"></path>
<path fill="#ff8d40" style="fill: var(--color1, #ff8d40)" d="M49.689 2.604h9.459l-4.184 24.028c-0.66 3.421-3.337 5.148-8.029 5.181-24.65 0.866-17.65-1.412-15.090-21.125l-2.354 0.028 0.963-5.479h11.724l-3.723 21.346h6.967l4.268-23.978z"></path>
<path fill="#ff8d40" style="fill: var(--color1, #ff8d40)" d="M4.234 7.917c0.657-3.542 3.309-5.313 7.957-5.313h16.454l-0.89 5.313h-14.056l-0.901 5.153c3.055 0.817 14.095 2.074 13.043 5.429l-1.43 8.105c-0.74 8.303-18.885 4.292-24.411 5.181l0.89-5.302h14.133l0.963-5.153c-3.021-0.794-14.189-2.13-13.204-5.33l1.452-8.083z"></path>
</symbol>
</defs>
</svg>
